<svg width="108" height="48" viewBox="0 0 108 48" fill="none" xmlns="http://www.w3.org/2000/svg">
<path d="M80.0653 41.6271C80.018 41.4123 79.8842 41.0304 79.64 40.744C79.64 40.744 79.2699 40.2109 78.6872 40.0518C78.2225 39.9245 77.5217 39.8608 76.9862 40.4973C76.9862 40.4973 74.1512 43.7911 67.2134 43.9343H67.2056H67.1189H66.4496H66.4417H66.4338H66.426H66.4181H65.7408H65.6542C58.7164 43.7911 55.8815 40.4973 55.8815 40.4973C55.346 39.8608 54.6451 39.9245 54.1805 40.0518C53.5977 40.2109 53.2276 40.744 53.2276 40.744C52.9835 41.0304 52.8496 41.4123 52.8024 41.6271C52.385 43.624 53.9206 44.5628 53.9206 44.5628C53.9206 44.5628 58.5117 47.8486 65.6621 47.9998H65.7408H66.4181H67.1032H67.1111H67.1898C74.3323 47.8566 78.9313 44.5628 78.9313 44.5628C78.9313 44.5628 80.4826 43.624 80.0653 41.6271Z" fill="white"/>
<path d="M11.7336 35.0133C13.9149 34.8303 15.6947 34.1063 17.0334 32.8652C18.7974 31.266 19.6951 28.919 19.6951 25.8878C19.6951 23.2782 18.6635 21.1062 16.6318 19.4355C14.7576 17.8522 12.5132 17.0566 9.95387 17.0566H2.90584C1.98448 17.0566 1.25211 17.351 0.724489 17.9238L0.692989 17.9557C0.236245 18.5046 0 19.1968 0 20.0322V46.7961H5.50455V36.3817L18.6005 46.8438L20.7661 41.9827L11.7336 35.0133ZM9.83575 30.4625H6.16605C5.85105 30.4625 5.66206 30.4386 5.55181 30.4147C5.53606 30.3033 5.51243 30.1124 5.51243 29.8021V22.8009C5.51243 22.4985 5.52818 22.3076 5.54393 22.1803C5.66205 22.1644 5.85892 22.1405 6.15817 22.1405H9.78062C11.1115 22.1405 12.1588 22.5303 12.9778 23.3339L13.0015 23.3578C13.7968 24.0977 14.1906 25.0047 14.1906 26.1264C14.1906 27.6938 13.8519 28.8156 13.1826 29.4759C12.5526 30.1362 11.4186 30.4625 9.83575 30.4625Z" fill="white"/>
<path d="M40.2487 19.6225L40.2329 19.5827C39.8707 18.7553 39.4927 18.1506 39.0675 17.721L39.0438 17.6971C38.4375 17.1323 37.6972 16.8379 36.831 16.8379C35.9254 16.8379 35.1458 17.1163 34.5158 17.6733L34.5 17.6892C34.0196 18.1347 33.6338 18.7712 33.3266 19.6304L22.79 46.7842H28.586L30.5626 41.2548L36.7916 25.6292L42.9655 41.2548L44.95 46.7842H50.7381L40.2487 19.6225Z" fill="white"/>
<path d="M102.54 17.0527V36.2425L89.7516 19.1531C89.1846 18.2938 88.7199 17.7449 88.2868 17.4187C87.7828 17.0368 87.1765 16.8379 86.4914 16.8379C85.3652 16.8379 84.7589 17.3312 84.4596 17.7369C84.0738 18.2541 83.8848 18.986 83.8848 19.9725V46.7842H89.3893V27.1886L102.139 44.3099C102.674 45.1055 103.115 45.6226 103.517 45.917C104.052 46.3307 104.698 46.5375 105.438 46.5375C106.486 46.5375 107.092 46.0363 107.415 45.6146C107.809 45.1214 107.998 44.4212 107.998 43.4824V17.0527H102.54Z" fill="white"/>
<path d="M83.2052 15.6733L83.1973 15.6176C82.717 12.1886 79.7166 10.9792 77.5432 10.7406C77.1258 1.54346 72.1804 0.350067 71.9599 0.302331L71.9205 0.294367C70.7865 0.0954678 69.4556 0 67.9673 0C64.9197 0 62.2186 0.405745 62.0296 0.437569C58.8245 0.883103 58.1788 5.17933 58.0449 7.05694C57.0527 7.08081 55.5092 7.12059 55.2651 7.12854H55.21C53.3751 7.28766 52.5246 8.28217 52.3277 8.55267C50.9496 10.1916 51.5875 12.284 51.6111 12.3795L51.619 12.4113C52.0206 13.549 52.7924 14.6867 53.9106 15.8324C53.1389 17.8612 52.7451 20.1127 52.7451 22.5791C52.7451 26.9946 53.9657 31.1158 56.0841 33.8845C58.5095 37.0271 62.1792 38.7615 66.4159 38.7615C70.6605 38.7615 74.3302 37.0271 76.7478 33.8845C78.8977 31.1158 80.134 26.9946 80.134 22.5791C80.134 22.1733 80.1183 21.7755 80.0946 21.3777C83.3942 18.7602 83.2131 15.8324 83.2052 15.6733ZM72.6529 30.4952C71.3535 32.5876 69.1407 33.7413 66.4317 33.7413C63.7306 33.7413 61.5335 32.5876 60.2578 30.4952C59.1395 28.6892 58.4702 25.7296 58.4702 22.5711C58.4702 21.4652 58.5568 20.423 58.73 19.4524C59.1474 19.707 59.5805 19.9536 60.0373 20.2082C63.4156 22.0778 66.4947 23.2076 66.6207 23.2553L66.6443 23.2633C68.361 23.8361 70.1801 24.1305 72.0386 24.1305C73.0072 24.1305 73.8262 24.0509 74.4326 23.9634C74.2672 26.5809 73.6293 28.9597 72.6529 30.4952ZM79.882 19.2375C79.6379 19.5001 79.3465 19.7626 79.0079 20.0252C78.7402 20.24 78.433 20.4548 78.0944 20.6617C77.6062 20.9719 77.047 21.2663 76.4092 21.5527C76.1099 21.688 75.7792 21.8153 75.4406 21.9426C75.3303 21.9823 75.2279 22.0221 75.1177 22.0619C75.0468 22.0778 74.8184 22.1335 74.472 22.1892C73.9286 22.2767 73.0781 22.3881 72.0386 22.3881C70.3613 22.3881 68.7312 22.1256 67.1956 21.6164C66.9987 21.5448 64.0298 20.4309 60.8641 18.6806C60.2656 18.3465 59.6986 18.0203 59.171 17.6861C58.8797 17.5031 58.5962 17.3201 58.3284 17.1451C58.0449 16.9542 57.7614 16.7632 57.5016 16.5723C57.0291 16.2302 56.5881 15.8881 56.1864 15.546C55.9187 15.3153 55.6667 15.0925 55.4305 14.8617C55.1706 14.6151 54.9343 14.3605 54.7138 14.1139C54.0287 13.3422 53.5484 12.5784 53.2806 11.8464C53.2412 11.7112 52.9499 10.5178 53.6822 9.6665L53.7058 9.64263L53.7374 9.58694C53.8004 9.50738 54.2571 8.97433 55.3517 8.8709C56.6904 8.83908 58.7143 8.7834 58.8875 8.7834H59.738H59.7538V8.77544L59.7459 7.90824C59.7459 7.85255 59.7774 2.50613 62.2737 2.16403H62.2895C62.3131 2.15607 65.0142 1.75032 67.9673 1.75032C69.3533 1.75032 70.5739 1.83783 71.6055 2.01286C71.7079 2.04468 72.6056 2.32313 73.5348 3.42106C74.4956 4.55081 75.6374 6.75461 75.8186 10.8599C75.8264 11.0986 75.8343 11.3373 75.8422 11.5839L75.8579 12.3715V12.4511H75.9209L76.7163 12.4431H76.7242C76.7635 12.4431 76.921 12.4431 77.1573 12.467C77.614 12.5068 78.37 12.6182 79.126 12.9285C80.5041 13.5013 81.2759 14.448 81.4806 15.8244C81.4806 15.9517 81.4727 16.8269 80.8585 17.9328C80.638 18.3226 80.323 18.7681 79.882 19.2375Z" fill="white"/>
<path d="M59.8413 9.52539L59.1641 9.56516C63.2905 14.4263 68.3541 15.4367 68.3541 15.4367C69.2203 15.3412 69.7794 14.4342 69.7794 14.4342C62.1644 12.5566 59.8413 9.52539 59.8413 9.52539Z" fill="white"/>
<path d="M74.9131 14.335C75.0863 14.4941 75.4328 14.518 75.4328 14.518C76.4723 14.152 76.5511 12.895 76.5511 12.895C76.3069 12.8711 76.0077 12.8711 76.0077 12.8711C75.8108 13.8576 74.9131 14.335 74.9131 14.335Z" fill="white"/>
<path d="M71.0865 2.57827C69.0942 2.10887 63.4951 2.64987 63.4951 2.64987C71.5669 3.6205 72.3229 7.08932 72.3229 7.08932C73.008 4.21721 71.0865 2.57827 71.0865 2.57827Z" fill="white"/>
</svg>
