<svg width="54" height="24" viewBox="0 0 54 24" fill="none" xmlns="http://www.w3.org/2000/svg">
<path d="M39.9699 20.8147C39.9468 20.7069 39.8772 20.5145 39.7567 20.3738C39.7567 20.3738 39.5713 20.1064 39.2838 20.0266C39.052 19.961 38.6997 19.9328 38.4308 20.2518C38.4308 20.2518 37.0123 21.8984 33.5493 21.9687H33.5446H33.5029H33.1691H33.1645H33.1598H33.1552H33.1506H32.8122H32.7704C29.3074 21.8984 27.8889 20.2518 27.8889 20.2518C27.6246 19.9328 27.2723 19.9657 27.0405 20.0266C26.7484 20.1064 26.5676 20.3738 26.5676 20.3738C26.4471 20.5145 26.3776 20.7069 26.3544 20.8147C26.1458 21.8139 26.9153 22.2831 26.9153 22.2831C26.9153 22.2831 29.2101 23.9296 32.7797 24H32.8168H33.1552H33.4936H33.4983H33.5353C37.105 23.9249 39.3951 22.2831 39.3951 22.2831C39.3951 22.2831 40.1786 21.8139 39.9699 20.8147Z" fill="#909090"/>
<path d="M5.85511 17.5074C6.94454 17.4136 7.83463 17.0524 8.5022 16.4332C9.38301 15.6357 9.83269 14.4629 9.83269 12.943C9.83269 11.6389 9.31811 10.5506 8.30285 9.71558C7.37104 8.92279 6.24916 8.52405 4.96966 8.52405H1.44639C0.987441 8.52405 0.621208 8.66947 0.356963 8.95563L0.343056 8.9697C0.115898 9.24178 0 9.59361 0 10.0064V23.3947H2.74907V18.197L9.28566 23.4276L10.3658 20.9929L5.85511 17.5074ZM4.90476 15.2323H3.07359C2.91597 15.2323 2.82325 15.2229 2.76762 15.2088C2.75835 15.1525 2.74907 15.0587 2.74907 14.9039V11.4044C2.74907 11.2543 2.75835 11.1557 2.76762 11.0948C2.82789 11.0854 2.92524 11.076 3.07359 11.076H4.88158C5.54914 11.076 6.06836 11.273 6.48096 11.6718L6.49023 11.6811C6.88891 12.0517 7.08362 12.5021 7.08362 13.0697C7.08362 13.8531 6.91673 14.416 6.57831 14.7444C6.26307 15.0681 5.69749 15.2323 4.90476 15.2323Z" fill="#909090"/>
<path d="M20.0918 9.80946L20.0826 9.7907C19.9018 9.37789 19.7117 9.07297 19.5031 8.86187L19.4892 8.85249C19.1878 8.56633 18.817 8.4256 18.3858 8.4256C17.9315 8.4256 17.5421 8.56633 17.2315 8.8431L17.2222 8.85249C16.9811 9.07766 16.7911 9.39196 16.6381 9.82354L11.3764 23.3995H14.2692L15.2566 20.6365L18.3673 12.8211L21.4501 20.6365L22.4376 23.3995H25.3304L20.0918 9.80946Z" fill="#909090"/>
<path d="M51.1938 8.52879V18.1267L44.8055 9.57959C44.5228 9.14801 44.291 8.87593 44.0731 8.71174C43.8227 8.51941 43.5168 8.4209 43.1737 8.4209C42.6081 8.4209 42.3114 8.66483 42.1585 8.87124C41.9684 9.12925 41.871 9.49515 41.871 9.99241V23.3995H44.6201V13.5998L50.9898 22.161C51.2587 22.5598 51.4766 22.8178 51.6759 22.9632C51.9402 23.1696 52.2647 23.2728 52.6355 23.2728C53.1548 23.2728 53.4607 23.0242 53.623 22.8131C53.8177 22.5645 53.915 22.2173 53.915 21.7482V8.52879H51.1938Z" fill="#909090"/>
<path d="M41.5424 7.83409L41.5378 7.80594C41.2967 6.0937 39.7993 5.48855 38.7146 5.36658C38.5059 0.764644 36.035 0.168878 35.9284 0.145423L35.9098 0.140732C35.3443 0.0516018 34.6813 0 33.935 0C32.4144 0 31.0654 0.201716 30.9726 0.215789C29.3733 0.44096 29.0488 2.58947 28.9838 3.52768C28.4878 3.54176 27.7183 3.56052 27.5977 3.56052H27.5699C26.6566 3.64027 26.2301 4.13752 26.1328 4.27356C25.4467 5.0945 25.7619 6.14061 25.7758 6.18752L25.7805 6.20159C25.9798 6.76921 26.3646 7.34152 26.9255 7.90914C26.5361 8.92241 26.3414 10.053 26.3414 11.282C26.3414 13.4915 26.9487 15.5509 28.0103 16.9348C29.2203 18.5063 31.0514 19.3741 33.17 19.3741C35.2886 19.3741 37.1198 18.5063 38.3298 16.9348C39.4053 15.5509 40.0172 13.4915 40.0172 11.2773C40.0172 11.0756 40.008 10.8739 39.9987 10.6769C41.6398 9.38214 41.5471 7.91853 41.5424 7.83409ZM36.2714 15.2507C35.6224 16.2968 34.5191 16.8738 33.1654 16.8738C31.8164 16.8738 30.7223 16.2968 30.0826 15.2507C29.5216 14.35 29.1878 12.8676 29.1878 11.2867C29.1878 10.7332 29.2342 10.2125 29.3176 9.72459C29.5262 9.85124 29.7441 9.9779 29.9667 10.0999C31.6541 11.0334 33.1886 11.601 33.2535 11.6245L33.2628 11.6292C34.1204 11.9153 35.0244 12.0607 35.9562 12.0607C36.443 12.0607 36.8509 12.0185 37.1523 11.9763C37.0781 13.2945 36.7582 14.4813 36.2714 15.2507ZM39.8828 9.61669C39.7576 9.74804 39.6139 9.87939 39.447 10.0107C39.3126 10.1186 39.1596 10.2265 38.9927 10.3297C38.747 10.4845 38.4688 10.6347 38.149 10.7754C37.996 10.8411 37.8384 10.9067 37.6668 10.9724C37.6112 10.9912 37.5602 11.0146 37.5046 11.0334C37.4675 11.0428 37.3562 11.0709 37.1801 11.0991C36.9066 11.146 36.4847 11.1976 35.9655 11.1976C35.131 11.1976 34.3151 11.0662 33.5502 10.8129C33.4528 10.7754 31.9694 10.2218 30.3885 9.34461C30.0918 9.18042 29.809 9.01154 29.5402 8.84736C29.3964 8.75823 29.2527 8.6644 29.1183 8.57527C28.9746 8.48145 28.8355 8.38294 28.7057 8.28912C28.4693 8.11555 28.2514 7.94667 28.052 7.77779C27.9176 7.66521 27.7924 7.54793 27.6719 7.43534C27.5421 7.30869 27.4216 7.18672 27.3149 7.06006C26.9719 6.67539 26.7308 6.29541 26.601 5.92482C26.5825 5.85445 26.4388 5.25869 26.8004 4.83649L26.8143 4.82711L26.8328 4.79896C26.8653 4.76144 27.0924 4.49404 27.6394 4.44244C28.307 4.42368 29.3176 4.40022 29.4057 4.40022H29.8322H29.8415V4.39553L29.8368 3.96395C29.8368 3.93581 29.8508 1.2619 31.0978 1.09302H31.1071C31.121 1.09302 32.4654 0.886612 33.9442 0.886612C34.635 0.886612 35.2469 0.933523 35.7615 1.01796C35.8125 1.03204 36.2575 1.17277 36.7258 1.72162C37.2033 2.28924 37.7781 3.38695 37.8662 5.44164C37.8708 5.55892 37.8755 5.68088 37.8755 5.80285L37.8847 6.1969V6.23443H37.9172L38.3159 6.22974H38.3205C38.3437 6.22974 38.4225 6.22974 38.5384 6.23912C38.7655 6.25789 39.1411 6.31418 39.5212 6.46898C40.2073 6.75514 40.5921 7.22894 40.6941 7.91852C40.6941 7.97951 40.6894 8.42047 40.3835 8.96932C40.2629 9.16166 40.1053 9.38683 39.8828 9.61669Z" fill="#909090"/>
<path d="M29.8748 4.76239L29.5363 4.78115C31.5993 7.21113 34.1259 7.71776 34.1259 7.71776C34.557 7.67085 34.8352 7.21582 34.8352 7.21582C31.0337 6.27761 29.8748 4.76239 29.8748 4.76239Z" fill="#909090"/>
<path d="M37.4026 7.16765C37.486 7.2474 37.6622 7.25678 37.6622 7.25678C38.1814 7.07383 38.2231 6.44523 38.2231 6.44523C38.1026 6.43115 37.9542 6.43115 37.9542 6.43115C37.8522 6.92841 37.4026 7.16765 37.4026 7.16765Z" fill="#909090"/>
<path d="M35.4931 1.29065C34.4964 1.05609 31.701 1.32817 31.701 1.32817C35.7342 1.81605 36.1097 3.54705 36.1097 3.54705C36.4481 2.10689 35.4931 1.29065 35.4931 1.29065Z" fill="#909090"/>
</svg>
