<svg width="90" height="40" viewBox="0 0 90 40" fill="none" xmlns="http://www.w3.org/2000/svg">
<path d="M66.721 34.6894C66.6816 34.5104 66.57 34.1922 66.3666 33.9535C66.3666 33.9535 66.0582 33.5093 65.5725 33.3767C65.1854 33.2706 64.6013 33.2176 64.1551 33.748C64.1551 33.748 61.7926 36.4928 56.0111 36.6121H56.0045H55.9324H55.3746H55.368H55.3614H55.3549H55.3483H54.7839H54.7117C48.9303 36.4928 46.5678 33.748 46.5678 33.748C46.1215 33.2176 45.5375 33.2706 45.1503 33.3767C44.6647 33.5093 44.3562 33.9535 44.3562 33.9535C44.1528 34.1922 44.0413 34.5104 44.0019 34.6894C43.6541 36.3536 44.9337 37.1359 44.9337 37.1359C44.9337 37.1359 48.7596 39.8741 54.7183 40H54.7839H55.3483H55.9192H55.9258H55.9914C61.9435 39.8807 65.776 37.1359 65.776 37.1359C65.776 37.1359 67.0688 36.3536 66.721 34.6894Z" fill="#FF8400"/>
<path d="M9.778 29.1783C11.5958 29.0258 13.0789 28.4225 14.1945 27.3882C15.6645 26.0556 16.4126 24.0998 16.4126 21.5737C16.4126 19.3991 15.5529 17.5891 13.8598 16.1968C12.298 14.8775 10.4277 14.2145 8.29489 14.2145H2.42153C1.65373 14.2145 1.04342 14.4598 0.603741 14.9371L0.577491 14.9637C0.196871 15.4211 0 15.9979 0 16.6941V38.9973H4.58713V30.3187L15.5004 39.0371L17.3051 34.9862L9.778 29.1783ZM8.19646 25.386H5.13837C4.87588 25.386 4.71838 25.3661 4.62651 25.3462C4.61338 25.2534 4.59369 25.0942 4.59369 24.8357V19.0013C4.59369 18.7494 4.60682 18.5903 4.61994 18.4842C4.71838 18.4709 4.88244 18.451 5.13181 18.451H8.15052C9.25957 18.451 10.1324 18.7759 10.8149 19.4455L10.8345 19.4654C11.4974 20.082 11.8255 20.8378 11.8255 21.7726C11.8255 23.0787 11.5433 24.0136 10.9855 24.5638C10.4605 25.1141 9.5155 25.386 8.19646 25.386Z" fill="#FF8400"/>
<path d="M33.5404 16.3513L33.5273 16.3182C33.2254 15.6287 32.9104 15.1248 32.5561 14.7668L32.5364 14.7469C32.0311 14.2761 31.4142 14.0308 30.6924 14.0308C29.9377 14.0308 29.288 14.2629 28.763 14.727L28.7499 14.7403C28.3496 15.1115 28.028 15.6419 27.7721 16.358L18.9916 38.9861H23.8215L25.4687 34.3782L30.6595 21.357L35.8045 34.3782L37.4582 38.9861H42.2816L33.5404 16.3513Z" fill="#FF8400"/>
<path d="M85.4502 14.2098V30.2013L74.7929 15.9602C74.3204 15.2441 73.9332 14.7866 73.5723 14.5148C73.1523 14.1966 72.647 14.0308 72.076 14.0308C71.1376 14.0308 70.6323 14.4419 70.3829 14.78C70.0614 15.211 69.9039 15.8209 69.9039 16.6431V38.9861H74.491V22.6564L85.1155 36.9241C85.5618 37.5871 85.9293 38.0181 86.264 38.2634C86.7102 38.6082 87.2483 38.7805 87.8652 38.7805C88.738 38.7805 89.2433 38.3628 89.5124 38.0115C89.8405 37.6004 89.998 37.017 89.998 36.2346V14.2098H85.4502Z" fill="#FF8400"/>
<path d="M69.3379 13.0611L69.3313 13.0147C68.931 10.1572 66.4307 9.14943 64.6195 8.95053C64.2717 1.28628 60.1505 0.291785 59.9668 0.252005L59.934 0.245369C58.989 0.0796194 57.8799 6.29425e-05 56.6396 6.29425e-05C54.1 6.29425e-05 51.8491 0.338184 51.6916 0.364704C49.0207 0.735982 48.4825 4.31617 48.371 5.88085C47.5441 5.90074 46.2579 5.93389 46.0544 5.94052H46.0085C44.4795 6.07312 43.7707 6.90187 43.6067 7.12729C42.4582 8.49306 42.9898 10.2367 43.0095 10.3163L43.0161 10.3428C43.3507 11.2909 43.9939 12.239 44.9257 13.1937C44.2826 14.8844 43.9545 16.7606 43.9545 18.8159C43.9545 22.4956 44.9717 25.9299 46.7369 28.2371C48.7582 30.856 51.8162 32.3013 55.3468 32.3013C58.884 32.3013 61.9421 30.856 63.9567 28.2371C65.7483 25.9299 66.7786 22.4956 66.7786 18.8159C66.7786 18.4778 66.7654 18.1463 66.7458 17.8148C69.4954 15.6335 69.3445 13.1937 69.3379 13.0611ZM60.5443 25.4128C59.4615 27.1564 57.6174 28.1178 55.36 28.1178C53.109 28.1178 51.2781 27.1564 50.215 25.4128C49.2832 23.9077 48.7254 21.4414 48.7254 18.8093C48.7254 17.8877 48.7975 17.0192 48.9419 16.2104C49.2897 16.4225 49.6507 16.628 50.0313 16.8402C52.8466 18.3982 55.4125 19.3397 55.5175 19.3795L55.5371 19.3861C56.9677 19.8635 58.4837 20.1088 60.0324 20.1088C60.8396 20.1088 61.5221 20.0425 62.0274 19.9695C61.8896 22.1508 61.358 24.1332 60.5443 25.4128ZM66.5686 16.0313C66.3651 16.2501 66.1223 16.4689 65.8401 16.6877C65.617 16.8667 65.3611 17.0457 65.0789 17.2181C64.672 17.4767 64.2061 17.722 63.6745 17.9607C63.4252 18.0734 63.1495 18.1794 62.8674 18.2855C62.7755 18.3187 62.6902 18.3518 62.5983 18.385C62.5392 18.3983 62.3489 18.4446 62.0602 18.4911C61.6074 18.564 60.8986 18.6568 60.0324 18.6568C58.6346 18.6568 57.2762 18.438 55.9965 18.0137C55.8324 17.954 53.3584 17.0259 50.7203 15.5673C50.2216 15.2888 49.7491 15.017 49.3094 14.7385C49.0666 14.586 48.8303 14.4335 48.6072 14.2877C48.371 14.1285 48.1347 13.9694 47.9182 13.8103C47.5244 13.5252 47.1569 13.2401 46.8223 12.955C46.5991 12.7628 46.3891 12.5771 46.1923 12.3849C45.9757 12.1793 45.7788 11.9672 45.5951 11.7616C45.0241 11.1185 44.6238 10.482 44.4007 9.87209C44.3679 9.75938 44.1251 8.76489 44.7354 8.05548L44.7551 8.03559L44.7813 7.98918C44.8338 7.92288 45.2145 7.47867 46.1266 7.39248C47.2422 7.36596 48.9288 7.31956 49.0732 7.31956H49.7819H49.795V7.31293L49.7885 6.59026C49.7885 6.54385 49.8147 2.08851 51.895 1.80342H51.9081C51.9278 1.79679 54.1787 1.45867 56.6396 1.45867C57.7946 1.45867 58.8118 1.53159 59.6715 1.67745C59.7568 1.70397 60.5049 1.93601 61.2793 2.85094C62.0799 3.7924 63.0314 5.62891 63.1824 9.04998C63.1889 9.24888 63.1955 9.44778 63.202 9.65331L63.2152 10.3097V10.376H63.2677L63.9305 10.3693H63.937C63.9698 10.3693 64.1011 10.3694 64.298 10.3892C64.6786 10.4224 65.3086 10.5152 65.9386 10.7738C67.087 11.2511 67.7301 12.0401 67.9007 13.1871C67.9007 13.2932 67.8942 14.0225 67.3823 14.944C67.1985 15.2689 66.9361 15.6402 66.5686 16.0313Z" fill="#FF8400"/>
<path d="M49.8676 7.93736L49.3032 7.9705C52.7419 12.0214 56.9616 12.8634 56.9616 12.8634C57.6834 12.7839 58.1494 12.028 58.1494 12.028C51.8035 10.4634 49.8676 7.93736 49.8676 7.93736Z" fill="#FF8400"/>
<path d="M62.4278 11.9463C62.5721 12.0789 62.8609 12.0988 62.8609 12.0988C63.7271 11.7938 63.7927 10.7463 63.7927 10.7463C63.5893 10.7264 63.3399 10.7264 63.3399 10.7264C63.1759 11.5485 62.4278 11.9463 62.4278 11.9463Z" fill="#FF8400"/>
<path d="M59.2387 2.14798C57.5784 1.75681 52.9125 2.20764 52.9125 2.20764C59.639 3.0165 60.269 5.90718 60.269 5.90718C60.8399 3.51376 59.2387 2.14798 59.2387 2.14798Z" fill="#FF8400"/>
</svg>
