<svg width="40" height="40" viewBox="0 0 40 40" fill="none" xmlns="http://www.w3.org/2000/svg">
<rect y="-0.000488281" width="40" height="40" rx="20" fill="#747474"/>
<path d="M13.8068 17.3291C13.3894 17.3291 13.0518 17.6667 13.0518 18.0841C13.0518 18.5015 13.3894 18.8391 13.8068 18.8391C14.2242 18.8391 14.5618 18.5015 14.5618 18.0841C14.5618 17.6667 14.2242 17.3291 13.8068 17.3291Z" fill="white"/>
<path d="M21.2891 17.2495C20.841 17.2495 20.4727 17.6178 20.4727 18.0659C20.4727 18.514 20.841 18.8823 21.2891 18.8823C21.7372 18.8823 22.1055 18.5202 22.1055 18.0659C22.1055 17.6117 21.7372 17.2495 21.2891 17.2495Z" fill="white"/>
<path d="M28.0597 9.79736H11.9464C10.3198 9.79736 9 11.1171 9 12.7377V22.3013C9 23.9279 10.3198 25.2477 11.9464 25.2477H17.6367L19.5703 29.8085C19.5703 29.8085 19.7054 30.2014 20.0246 30.2014C20.3499 30.2014 20.4788 29.8085 20.4788 29.8085L22.4124 25.2477H28.0536C29.6802 25.2477 31 23.9279 31 22.3013V12.7377C31 11.111 29.6802 9.79736 28.0536 9.79736H28.0597ZM15.9118 18.2499C15.9057 19.9994 14.0949 20.0485 14.0949 20.0485C13.3951 20.0485 13.0022 19.582 13.0022 19.582V19.895H11.6886V14.4625C11.7684 14.481 13.0022 14.4625 13.0022 14.4625V16.5373C13.3092 16.0094 14.2054 16.0156 14.2054 16.0156C16.1574 16.1997 15.9118 18.2377 15.9118 18.2377V18.2499ZM18.2321 16.1936V19.9134H16.9431V16.2304C16.9431 15.7271 16.3231 15.592 16.3231 15.592V14.2968C18.3795 14.3827 18.2321 16.1997 18.2321 16.1997V16.1936ZM21.2891 20.0546C20.0982 20.0546 19.1283 19.1646 19.1283 18.0658C19.1283 16.967 20.0982 16.0769 21.2891 16.0769C22.4799 16.0769 23.4498 16.967 23.4498 18.0658C23.4498 19.1646 22.4799 20.0546 21.2891 20.0546ZM28.3482 20.0546C28.3482 20.0546 28.3666 21.9452 26.4453 21.9452H25.8622V20.7237H26.2121C26.2121 20.7237 27.0162 20.7974 27.01 19.5574C27.01 19.5574 26.8504 20.0608 25.721 20.0608C25.721 20.0608 24.1189 19.9441 24.1189 18.3788V17.7834C24.1189 17.7834 24.1557 16.1629 25.9174 16.034C25.9174 16.034 26.611 15.9603 27.0407 16.5373V16.1383H28.3482V20.0608V20.0546Z" fill="white"/>
<path d="M26.298 17.2676C25.856 17.2676 25.5 17.6236 25.5 18.0656C25.5 18.5075 25.856 18.8636 26.298 18.8636C26.74 18.8636 27.096 18.5075 27.096 18.0656C27.096 17.6236 26.74 17.2676 26.298 17.2676Z" fill="white"/>
</svg>
