<svg width="40" height="40" viewBox="0 0 40 40" fill="none" xmlns="http://www.w3.org/2000/svg">
<rect y="-0.000488281" width="40" height="40" rx="20" fill="#747474"/>
<path d="M17.71 17.9565C18.6037 16.4249 21.1572 16.4673 21.1572 16.4673C26.7016 16.9754 26.0578 22.7879 26.0508 22.8501C26.0084 27.8474 20.9082 27.9982 20.8594 27.9995C18.8168 27.9995 17.71 26.6802 17.71 26.6802V27.5737H13.9229V11.9995C14.1349 12.0419 17.6857 11.9998 17.71 11.9995V17.9565ZM20.0078 20.2124C18.8165 20.2126 17.838 21.191 17.8379 22.3823C17.8379 23.5737 18.8165 24.5521 20.0078 24.5522C21.1993 24.5522 22.1787 23.5738 22.1787 22.3823C22.1786 21.1909 21.1992 20.2124 20.0078 20.2124Z" fill="white"/>
</svg>
