<svg width="40" height="41" viewBox="0 0 40 41" fill="none" xmlns="http://www.w3.org/2000/svg">
<rect y="0.563965" width="40" height="40" rx="20" fill="#747474"/>
<path d="M20 11.9644C20 11.9644 27.6888 11.9647 29.6113 12.4907C30.6635 12.774 31.4931 13.6036 31.7764 14.6558C32.3024 16.5781 32.2822 20.5845 32.2822 20.5845C32.2822 20.6174 32.2801 24.5784 31.7764 26.4927C31.4931 27.5449 30.6635 28.3744 29.6113 28.6577C27.6888 29.1635 20 29.1636 20 29.1636C19.963 29.1636 12.3265 29.162 10.3887 28.6372C9.33655 28.3539 8.5069 27.5243 8.22363 26.4722C7.71786 24.57 7.71777 20.564 7.71777 20.564C7.71778 20.5452 7.71902 16.5736 8.22363 14.6558C8.50691 13.6036 9.35674 12.7535 10.3887 12.4702C12.3063 11.9656 19.963 11.9644 20 11.9644ZM17.5518 24.2466L23.9463 20.564L17.5518 16.8813V24.2466Z" fill="white"/>
</svg>
