<svg width="40" height="40" viewBox="0 0 40 40" fill="none" xmlns="http://www.w3.org/2000/svg">
<rect y="-0.000488281" width="40" height="40" rx="20" fill="#747474"/>
<path d="M20.0005 23.5195C21.9445 23.5195 23.5205 21.9435 23.5205 19.9995C23.5205 18.0554 21.9445 16.4795 20.0005 16.4795C18.0564 16.4795 16.4805 18.0554 16.4805 19.9995C16.4805 21.9435 18.0564 23.5195 20.0005 23.5195Z" fill="white"/>
<path d="M24.84 8.99951H15.16C13.5263 8.99951 11.9594 9.64851 10.8042 10.8037C9.649 11.959 9 13.5258 9 15.1595V24.8395C9 26.4732 9.649 28.0401 10.8042 29.1953C11.9594 30.3505 13.5263 30.9995 15.16 30.9995H24.84C26.4737 30.9995 28.0406 30.3505 29.1958 29.1953C30.351 28.0401 31 26.4732 31 24.8395V15.1595C31 13.5258 30.351 11.959 29.1958 10.8037C28.0406 9.64851 26.4737 8.99951 24.84 8.99951ZM20 25.2795C18.9557 25.2795 17.9349 24.9698 17.0666 24.3897C16.1983 23.8095 15.5215 22.9849 15.1219 22.0201C14.7223 21.0553 14.6177 19.9937 14.8215 18.9694C15.0252 17.9452 15.5281 17.0044 16.2665 16.266C17.0049 15.5276 17.9457 15.0247 18.9699 14.821C19.9941 14.6172 21.0558 14.7218 22.0206 15.1214C22.9854 15.5211 23.81 16.1978 24.3902 17.0661C24.9703 17.9344 25.28 18.9552 25.28 19.9995C25.28 21.3999 24.7237 22.7428 23.7335 23.733C22.7433 24.7232 21.4003 25.2795 20 25.2795ZM25.72 15.5995C25.4589 15.5995 25.2037 15.5221 24.9866 15.3771C24.7696 15.232 24.6004 15.0259 24.5005 14.7847C24.4006 14.5435 24.3744 14.278 24.4254 14.022C24.4763 13.7659 24.602 13.5307 24.7866 13.3461C24.9712 13.1615 25.2064 13.0358 25.4625 12.9849C25.7185 12.9339 25.9839 12.9601 26.2251 13.06C26.4663 13.1599 26.6725 13.3291 26.8175 13.5462C26.9626 13.7632 27.04 14.0184 27.04 14.2795C27.04 14.6296 26.9009 14.9653 26.6534 15.2129C26.4058 15.4604 26.0701 15.5995 25.72 15.5995Z" fill="white"/>
</svg>
