<svg width="40" height="40" viewBox="0 0 40 40" fill="none" xmlns="http://www.w3.org/2000/svg">
<rect y="-0.000488281" width="40" height="40" rx="20" fill="#747474"/>
<path d="M20 11.3999C20 11.3999 27.6888 11.4002 29.6113 11.9263C30.6635 12.2096 31.4931 13.0391 31.7764 14.0913C32.3024 16.0136 32.2822 20.02 32.2822 20.02C32.2822 20.053 32.2801 24.0139 31.7764 25.9282C31.4931 26.9804 30.6635 27.81 29.6113 28.0933C27.6888 28.5991 20 28.5991 20 28.5991C19.963 28.5991 12.3265 28.5976 10.3887 28.0728C9.33655 27.7894 8.5069 26.9599 8.22363 25.9077C7.71786 24.0055 7.71777 19.9995 7.71777 19.9995C7.71778 19.9807 7.71902 16.0091 8.22363 14.0913C8.50691 13.0391 9.35674 12.1891 10.3887 11.9058C12.3063 11.4011 19.963 11.3999 20 11.3999ZM17.5518 23.6821L23.9463 19.9995L17.5518 16.3169V23.6821Z" fill="white"/>
</svg>
