<svg width="40" height="40" viewBox="0 0 40 40" fill="none" xmlns="http://www.w3.org/2000/svg">
<circle cx="20" cy="19.9995" r="20" fill="#747474"/>
<path fill-rule="evenodd" clip-rule="evenodd" d="M15.2247 16.8237V29.0905H11.1493V16.8237H15.2247ZM29.9174 22.056V29.0905H25.8429V22.5272C25.8429 20.8789 25.2525 19.7536 23.7788 19.7536C22.6532 19.7536 21.9822 20.5122 21.6882 21.2445C21.5802 21.5066 21.5539 21.8732 21.5539 22.2398V29.0905H17.4796C17.4796 29.0905 17.5336 17.9746 17.4796 16.8237H21.5539V18.5605C22.0961 17.7249 23.0644 16.5352 25.2261 16.5352C27.907 16.5352 29.9174 18.288 29.9174 22.056ZM10.9092 13.0283C10.9092 11.826 11.8202 10.9087 13.2145 10.9087C14.6079 10.9087 15.466 11.826 15.4924 13.0283C15.4924 14.2053 14.6079 15.1479 13.1869 15.1479H13.1606C11.7925 15.1479 10.9092 14.2053 10.9092 13.0283Z" fill="white"/>
</svg>
