<svg width="40" height="41" viewBox="0 0 40 41" fill="none" xmlns="http://www.w3.org/2000/svg">
<circle cx="20" cy="20.564" r="20" fill="#747474"/>
<path fill-rule="evenodd" clip-rule="evenodd" d="M15.2247 17.3881V29.655H11.1493V17.3881H15.2247ZM29.9174 22.6205V29.655H25.8429V23.0917C25.8429 21.4434 25.2525 20.318 23.7788 20.318C22.6532 20.318 21.9822 21.0767 21.6882 21.809C21.5802 22.071 21.5539 22.4376 21.5539 22.8043V29.655H17.4796C17.4796 29.655 17.5336 18.539 17.4796 17.3881H21.5539V19.1249C22.0961 18.2893 23.0644 17.0997 25.2261 17.0997C27.907 17.0997 29.9174 18.8525 29.9174 22.6205ZM10.9092 13.5928C10.9092 12.3905 11.8202 11.4731 13.2145 11.4731C14.6079 11.4731 15.466 12.3905 15.4924 13.5928C15.4924 14.7698 14.6079 15.7123 13.1869 15.7123H13.1606C11.7925 15.7123 10.9092 14.7698 10.9092 13.5928Z" fill="white"/>
</svg>
