<svg width="40" height="41" viewBox="0 0 40 41" fill="none" xmlns="http://www.w3.org/2000/svg">
<rect y="0.563965" width="40" height="40" rx="20" fill="#747474"/>
<path d="M20.0005 24.0839C21.9445 24.0839 23.5205 22.508 23.5205 20.5639C23.5205 18.6199 21.9445 17.0439 20.0005 17.0439C18.0564 17.0439 16.4805 18.6199 16.4805 20.5639C16.4805 22.508 18.0564 24.0839 20.0005 24.0839Z" fill="white"/>
<path d="M24.84 9.56396H15.16C13.5263 9.56396 11.9594 10.213 10.8042 11.3682C9.649 12.5234 9 14.0902 9 15.724V25.404C9 27.0377 9.649 28.6045 10.8042 29.7597C11.9594 30.915 13.5263 31.564 15.16 31.564H24.84C26.4737 31.564 28.0406 30.915 29.1958 29.7597C30.351 28.6045 31 27.0377 31 25.404V15.724C31 14.0902 30.351 12.5234 29.1958 11.3682C28.0406 10.213 26.4737 9.56396 24.84 9.56396ZM20 25.844C18.9557 25.844 17.9349 25.5343 17.0666 24.9541C16.1983 24.374 15.5215 23.5493 15.1219 22.5845C14.7223 21.6197 14.6177 20.5581 14.8215 19.5339C15.0252 18.5097 15.5281 17.5689 16.2665 16.8304C17.0049 16.092 17.9457 15.5891 18.9699 15.3854C19.9941 15.1817 21.0558 15.2863 22.0206 15.6859C22.9854 16.0855 23.81 16.7623 24.3902 17.6306C24.9703 18.4988 25.28 19.5197 25.28 20.564C25.28 21.9643 24.7237 23.3073 23.7335 24.2975C22.7433 25.2877 21.4003 25.844 20 25.844ZM25.72 16.164C25.4589 16.164 25.2037 16.0865 24.9866 15.9415C24.7696 15.7965 24.6004 15.5903 24.5005 15.3491C24.4006 15.1079 24.3744 14.8425 24.4254 14.5864C24.4763 14.3304 24.602 14.0952 24.7866 13.9106C24.9712 13.726 25.2064 13.6003 25.4625 13.5493C25.7185 13.4984 25.9839 13.5245 26.2251 13.6244C26.4663 13.7244 26.6725 13.8935 26.8175 14.1106C26.9626 14.3277 27.04 14.5829 27.04 14.844C27.04 15.1941 26.9009 15.5298 26.6534 15.7773C26.4058 16.0249 26.0701 16.164 25.72 16.164Z" fill="white"/>
</svg>
