<svg width="82" height="40" viewBox="0 0 82 40" fill="none" xmlns="http://www.w3.org/2000/svg">
<path d="M4.70364 34.2387H3.99953C3.92863 33.6862 3.42745 33.2608 2.61333 33.2608C1.7992 33.2608 1.3298 33.6006 1.3298 34.0676C1.3298 34.6079 1.81143 34.8426 2.92626 35.0773C4.20979 35.3511 4.7232 35.845 4.7232 36.62C4.7232 37.5588 3.80395 38.1309 2.64511 38.1309C1.42759 38.1309 0.547462 37.4659 0.476562 36.4562H1.18067C1.25157 37.0869 1.81876 37.5368 2.69156 37.5368C3.4739 37.5368 4.02643 37.1774 4.02643 36.6566C4.02643 36.0772 3.55213 35.8425 2.41774 35.6005C1.23934 35.3536 0.640365 34.9306 0.640365 34.0627C0.640365 33.1948 1.4936 32.6692 2.64755 32.6692C3.8015 32.6692 4.64007 33.3195 4.70608 34.2314L4.70364 34.2387Z" fill="black"/>
<path d="M5.76465 36.153C5.76465 35.0332 6.54699 34.1996 7.63493 34.1996C8.72287 34.1996 9.49787 35.0332 9.49787 36.153C9.49787 36.2385 9.49787 36.3363 9.48565 36.4268H6.43697C6.50787 37.0649 6.96994 37.5416 7.63493 37.5416C8.14345 37.5416 8.53951 37.3069 8.67642 37.0013H9.36096C9.15804 37.6467 8.48817 38.1088 7.63493 38.1088C6.54699 38.1088 5.76465 37.2751 5.76465 36.1554V36.153ZM7.63493 34.7667C6.96505 34.7667 6.50787 35.2362 6.43697 35.8816H8.84022C8.76199 35.2313 8.30725 34.7667 7.63493 34.7667Z" fill="black"/>
<path d="M12.4748 38.1088C11.3673 38.1088 10.5605 37.2752 10.5605 36.1554C10.5605 35.0357 11.3624 34.202 12.4626 34.202C13.3427 34.202 14.0322 34.7692 14.2155 35.5442H13.531C13.3819 35.1017 12.9907 34.7961 12.4626 34.7961C11.7194 34.7961 11.2182 35.3829 11.2182 36.1579C11.2182 36.9329 11.7194 37.5196 12.4626 37.5196C12.9907 37.5196 13.3941 37.2067 13.5432 36.7569H14.2278C14.0248 37.5636 13.3427 38.1113 12.4748 38.1113V38.1088Z" fill="black"/>
<path d="M18.1298 38.016V37.4488C17.9734 37.7226 17.5504 38.1064 16.8659 38.1064C15.9857 38.1064 15.3672 37.4757 15.3672 36.4708V34.2901H16.0371V36.3559C16.0371 37.1114 16.4013 37.5221 17.0077 37.5221C17.658 37.5221 18.1274 36.9109 18.1274 36.219V34.2901H18.7973V38.016H18.1274H18.1298Z" fill="black"/>
<path d="M20.9311 34.29V34.8621C21.0949 34.581 21.5423 34.1971 22.2733 34.1971C22.5007 34.1971 22.6523 34.2167 22.7818 34.2632V34.9013C22.6376 34.8352 22.4567 34.7961 22.2293 34.7961C21.4665 34.7961 20.9336 35.4073 20.9336 36.0845V38.0135H20.2637V34.2876H20.9336L20.9311 34.29Z" fill="black"/>
<path d="M24.7429 33.0138C24.7429 33.2681 24.5547 33.4563 24.2931 33.4563C24.0315 33.4563 23.8506 33.2681 23.8506 33.0138C23.8506 32.7596 24.0388 32.5713 24.2931 32.5713C24.5474 32.5713 24.7429 32.7596 24.7429 33.0138ZM23.9606 38.0232V34.29H24.6305V38.0232H23.9606Z" fill="black"/>
<path d="M28.43 34.8841H27.6036V38.016H26.9338V34.8841H26.1074V34.2925H26.9338V33.1581H27.6036V34.2925H28.43V34.8841Z" fill="black"/>
<path d="M33.356 34.2901L31.0309 39.5977H30.3537L31.0896 37.9377L29.4932 34.2901H30.2291L31.427 37.2214L32.6592 34.2901H33.356Z" fill="black"/>
<path d="M37.1064 38.016H36.4219V32.7987H37.1064V38.016Z" fill="black"/>
<path d="M43.3424 37.4292L44.071 38.3533L43.538 38.7567L42.7899 37.813C42.3987 38.0208 41.944 38.1333 41.4477 38.1333C39.8659 38.1333 38.6924 36.9793 38.6924 35.4049C38.6924 33.8304 39.8586 32.6765 41.4404 32.6765C43.0221 32.6765 44.1957 33.8304 44.1957 35.4049C44.1957 36.2312 43.8754 36.9426 43.3424 37.4316V37.4292ZM42.3865 37.2996L41.4355 36.1016L41.9684 35.6909L42.9317 36.9084C43.296 36.5368 43.5111 36.0087 43.5111 35.4049C43.5111 34.1727 42.631 33.2999 41.4404 33.2999C40.2497 33.2999 39.3745 34.1727 39.3745 35.4049C39.3745 36.637 40.2546 37.5098 41.4452 37.5098C41.79 37.5098 42.1029 37.4389 42.384 37.302L42.3865 37.2996Z" fill="black"/>
<path d="M48.0512 32.7987V35.7692C48.0512 36.818 48.6576 37.5148 49.6477 37.5148C50.6378 37.5148 51.2368 36.818 51.2368 35.7692V32.7987H51.9214V35.7692C51.9214 37.2018 51.029 38.1406 49.6477 38.1406C48.2664 38.1406 47.3691 37.2018 47.3691 35.7692V32.7987H48.0537H48.0512Z" fill="black"/>
<path d="M55.547 32.7987C56.9014 32.7987 57.696 33.5224 57.696 34.6103C57.696 35.6983 56.9014 36.4219 55.547 36.4219H54.3808V38.0184H53.6963V32.8012H55.547V32.7987ZM57.0115 34.6103C57.0115 33.8353 56.4394 33.4173 55.4932 33.4173H54.3784V35.801H55.4932C56.4369 35.801 57.0115 35.3829 57.0115 34.6079V34.6103Z" fill="black"/>
<path d="M60.7647 37.5734L62.6155 35.7178C63.2804 35.0479 63.5396 34.6225 63.5396 34.2534C63.5396 33.6422 63.1215 33.2828 62.4712 33.2828C61.7671 33.2828 61.3906 33.8158 61.3906 34.3976H60.7061C60.7061 33.4539 61.3906 32.6789 62.4785 32.6789C63.5665 32.6789 64.2168 33.3097 64.2168 34.2485C64.2168 34.8084 63.8965 35.2851 63.1166 36.0845L61.75 37.4267H64.3953V38.0184H60.7672V37.5759L60.7647 37.5734Z" fill="black"/>
<path d="M65.75 35.4049C65.75 33.581 66.5763 32.6765 67.679 32.6765C68.7816 32.6765 69.6006 33.581 69.6006 35.4049C69.6006 37.2287 68.7742 38.1333 67.679 38.1333C66.5837 38.1333 65.75 37.2287 65.75 35.4049ZM68.9405 35.4049C68.9405 33.9918 68.3806 33.2803 67.6765 33.2803C66.9724 33.2803 66.4052 33.9893 66.4052 35.4049C66.4052 36.8204 66.9651 37.5294 67.6765 37.5294C68.388 37.5294 68.9405 36.8253 68.9405 35.4049Z" fill="black"/>
<path d="M70.9473 37.5734L72.7981 35.7178C73.4631 35.0479 73.7222 34.6225 73.7222 34.2534C73.7222 33.6422 73.3041 33.2828 72.6538 33.2828C71.9497 33.2828 71.5732 33.8158 71.5732 34.3976H70.8887C70.8887 33.4539 71.5732 32.6789 72.6612 32.6789C73.7491 32.6789 74.3994 33.3097 74.3994 34.2485C74.3994 34.8084 74.0792 35.2851 73.2993 36.0845L71.9326 37.4267H74.5779V38.0184H70.9498V37.5759L70.9473 37.5734Z" fill="black"/>
<path d="M76.126 36.5442H76.8032C76.8227 37.104 77.2335 37.5417 77.9694 37.5417C78.7052 37.5417 79.1429 37.0331 79.1429 36.3486C79.1429 35.6641 78.6735 35.1824 77.984 35.1824C77.4119 35.1824 77.0795 35.4758 76.9034 35.801H76.2335L76.3827 32.7987H79.5487V33.3904H77.0085L76.9181 35.0969C77.1137 34.8548 77.4975 34.5957 78.0965 34.5957C79.0866 34.5957 79.8152 35.3047 79.8152 36.3486C79.8152 37.3925 79.0671 38.1333 77.9718 38.1333C76.8765 38.1333 76.1675 37.4488 76.1284 36.5442H76.126Z" fill="black"/>
<mask id="mask0_430_51335" style="mask-type:luminance" maskUnits="userSpaceOnUse" x="0" y="8" width="19" height="20">
<path d="M12.9428 15.8535H6.36875C5.54484 15.8461 4.87986 15.1763 4.87986 14.3499V14.2277C4.87986 13.3964 5.55218 12.7241 6.38341 12.7241H17.918V8.31857H6.31007C3.01202 8.32102 0.339844 10.9932 0.339844 14.2912C0.339844 17.5893 2.89712 20.1417 6.09248 20.2566V20.2615H12.8817C13.7056 20.2688 14.3706 20.9387 14.3706 21.765V21.8873C14.3706 22.7185 13.6983 23.3908 12.867 23.3908H0.899705V27.7964H12.9404C16.2384 27.7964 18.9106 25.1242 18.9106 21.8261C18.9106 18.5281 16.2384 15.8559 12.9404 15.8559L12.9428 15.8535Z" fill="white"/>
</mask>
<g mask="url(#mask0_430_51335)">
<path d="M81.5747 -0.323608H0.21875V28.9652H81.5747V-0.323608Z" fill="url(#paint0_linear_430_51335)"/>
</g>
<mask id="mask1_430_51335" style="mask-type:luminance" maskUnits="userSpaceOnUse" x="43" y="8" width="18" height="20">
<path d="M60.6898 16.6383L60.6703 8.28195H60.614C59.5188 8.31129 58.4015 8.30395 57.3209 8.29662C56.9444 8.29418 56.5679 8.29173 56.1914 8.28929H56.1376L56.1547 17.0099C56.1547 17.0099 56.2109 19.3741 56.0276 20.3006C55.9249 20.8263 55.6804 21.5793 55.101 22.1856C54.4116 22.9044 53.4239 23.2662 52.0817 23.2882C52.0254 23.2882 51.9716 23.2882 51.9154 23.2882C51.8616 23.2882 51.8054 23.2882 51.7492 23.2882C50.407 23.2662 49.4193 22.9068 48.7298 22.1856C48.1504 21.5793 47.9059 20.8263 47.8032 20.3006C47.6199 19.3741 47.6761 17.0099 47.6761 17.0099L47.6932 8.28929H47.6394C47.2629 8.28929 46.8864 8.29418 46.5099 8.29662C45.4293 8.30395 44.312 8.31129 43.2168 8.2844H43.1605L43.141 16.6408C43.1068 18.555 43.075 20.5329 43.5737 22.298C43.8964 23.4349 44.5394 24.5253 45.3902 25.3687C46.994 26.9627 49.1894 27.7769 51.9154 27.794C54.6414 27.7769 56.8344 26.9603 58.4406 25.3687C59.289 24.5253 59.9344 23.4349 60.2571 22.298C60.7558 20.5304 60.7216 18.5526 60.6898 16.6408V16.6383Z" fill="white"/>
</mask>
<g mask="url(#mask1_430_51335)">
<path d="M81.5747 -0.323471H0.21875V28.9654H81.5747V-0.323471Z" fill="url(#paint1_linear_430_51335)"/>
</g>
<path d="M25.7599 6.8006L25.293 6.82505C28.1265 10.1255 31.5932 10.8125 31.5932 10.8125C32.1898 10.749 32.5663 10.1329 32.5663 10.1329C27.3442 8.85668 25.755 6.8006 25.755 6.8006H25.7624H25.7599Z" fill="#FFA750"/>
<path d="M36.0967 10.062C36.2116 10.172 36.4561 10.1842 36.4561 10.1842C37.1675 9.93484 37.2262 9.08894 37.2262 9.08894C37.0599 9.06938 36.8546 9.06938 36.8546 9.06938C36.7128 9.7417 36.0991 10.062 36.0991 10.062H36.0967Z" fill="#FFA750"/>
<path d="M33.4692 2.0895C32.105 1.76923 28.2666 2.14084 28.2666 2.14084C33.8041 2.80094 34.3151 5.15285 34.3151 5.15285C34.782 3.197 33.4692 2.0895 33.4692 2.0895Z" fill="#FFA750"/>
<mask id="mask2_430_51335" style="mask-type:luminance" maskUnits="userSpaceOnUse" x="63" y="8" width="19" height="20">
<path d="M76.5956 8.49745C76.5125 8.4779 76.4294 8.45589 76.3463 8.44122C75.8304 8.34099 75.2192 8.30431 74.5909 8.29209C74.5102 8.29209 74.432 8.2872 74.3513 8.2872H63.6699V27.4887L68.2026 27.4838V21.6187H74.3537C74.4589 21.6187 74.5616 21.6139 74.6642 21.6114C75.2608 21.5992 75.8377 21.5601 76.3291 21.4672C79.1333 20.8609 81.2823 18.4918 81.5537 15.5752C81.5635 15.3111 81.5733 14.9664 81.5782 14.7562C81.4926 11.7417 79.4047 9.22845 76.5981 8.49745H76.5956ZM76.7008 14.6119V15.3258C76.7008 16.3355 75.8817 17.1545 74.872 17.1545H68.2002V12.7441H74.8696C75.8793 12.7441 76.6983 13.5631 76.6983 14.5728V14.6119H76.7008Z" fill="white"/>
</mask>
<g mask="url(#mask2_430_51335)">
<path d="M81.5747 -0.323608H0.21875V28.9652H81.5747V-0.323608Z" fill="url(#paint2_linear_430_51335)"/>
</g>
<mask id="mask3_430_51335" style="mask-type:luminance" maskUnits="userSpaceOnUse" x="20" y="0" width="22" height="28">
<path d="M41.7734 10.9421C41.4409 8.61466 39.3824 7.79564 37.8959 7.63429C37.6075 1.38291 34.2165 0.576121 34.0698 0.544338H34.0454C33.2704 0.402539 32.3536 0.338974 31.3341 0.338974C29.2438 0.338974 27.393 0.615238 27.2659 0.634796C25.068 0.942842 24.6255 3.85217 24.5351 5.12836C23.8554 5.14058 22.7919 5.17236 22.6306 5.17236H22.5914C21.8287 5.24326 21.3226 5.51219 21.0023 5.75667C20.7969 5.91803 20.6698 6.06472 20.6185 6.14051C19.6772 7.25534 20.1124 8.67333 20.132 8.7369V8.75645C20.3422 9.3261 20.682 9.89818 21.1563 10.4678C21.435 10.7759 21.7382 11.0815 22.0585 11.3797C20.9143 13.0129 20.2395 14.9981 20.2395 17.1422C20.2395 22.6919 24.738 27.1903 30.2877 27.1903C31.4783 27.1903 32.6127 26.9727 33.6738 26.5938L34.7104 27.8455H40.1647L37.275 24.3568C39.1599 22.5305 40.3383 19.9757 40.3383 17.1422C40.3383 16.2571 40.2234 15.399 40.0083 14.58C40.1843 14.4113 40.3481 14.2328 40.4948 14.0446C41.859 12.519 41.7759 11.0644 41.7636 10.9666L41.7759 10.9739V10.9421H41.7734ZM22.5694 11.832C22.5694 11.832 22.5743 11.8369 22.5768 11.8369C22.5768 11.8369 22.5719 11.832 22.5694 11.832ZM34.3876 20.8705L34.0014 20.4035H28.547L30.4344 22.6796C30.3855 22.6796 30.339 22.687 30.2926 22.687C27.2292 22.687 24.7453 20.2031 24.7453 17.1397C24.7453 15.9613 25.1145 14.8685 25.7403 13.9712C25.7403 13.9712 25.7403 13.9712 25.7379 13.9712C25.7892 13.9981 25.8406 14.025 25.8895 14.0519C25.8968 14.0519 25.9017 14.0592 25.909 14.0641C27.7353 15.0641 29.4271 15.7511 30.0994 16.0053C30.273 16.0762 30.3879 16.1153 30.4002 16.1202H30.4124C31.5908 16.5187 32.8352 16.7168 34.1089 16.7168C34.6737 16.7168 35.1529 16.6776 35.5391 16.6263C35.6296 16.6116 35.7176 16.5896 35.8081 16.5725C35.8276 16.7583 35.8374 16.949 35.8374 17.1397C35.8374 18.5773 35.2849 19.8828 34.3876 20.868V20.8705ZM40.4043 12.0374L40.397 12.0252C40.3383 12.1719 40.2625 12.3381 40.1672 12.5117C40.1085 12.6144 40.0327 12.7293 39.9496 12.8393C39.8225 13.0178 39.6807 13.1987 39.4948 13.3918C39.3286 13.5654 39.1306 13.7512 38.8983 13.9297C38.7125 14.0764 38.4998 14.2182 38.27 14.3648C37.9375 14.5702 37.5512 14.7756 37.1112 14.9736C36.9058 15.0641 36.6809 15.1521 36.4511 15.2376C36.3802 15.2621 36.3044 15.2963 36.2261 15.3208C36.1748 15.333 36.0208 15.3721 35.7836 15.4112C35.412 15.4748 34.8277 15.5457 34.1187 15.5457C33.4513 15.5457 32.7912 15.4821 32.1506 15.3599C31.6886 15.2768 31.2412 15.1667 30.7987 15.0201C30.7913 15.0201 30.7742 15.0127 30.7473 15.0005C30.4002 14.8734 28.4908 14.1424 26.4542 13.0251C26.0435 12.8002 25.6597 12.5752 25.2954 12.3528C25.0974 12.2305 24.9042 12.1083 24.7184 11.9812C24.5204 11.854 24.3346 11.7196 24.1488 11.59C23.8212 11.3602 23.5205 11.1279 23.2515 10.8981C23.0657 10.7441 22.8921 10.5901 22.7332 10.436C22.5548 10.2698 22.3934 10.0962 22.2394 9.92996C21.7724 9.40433 21.4375 8.89092 21.259 8.39218C21.2346 8.30172 21.0341 7.4876 21.5353 6.91062L21.5548 6.8984L21.5793 6.85928C21.6037 6.8275 21.7333 6.68081 22.0022 6.55124C22.1685 6.46811 22.3934 6.39721 22.6868 6.37277C23.6036 6.34832 24.9873 6.31409 25.1096 6.31409H25.7061V5.71756C25.7061 5.67844 25.7257 2.05034 27.437 1.82053H27.4444C27.4444 1.82053 29.3098 1.53938 31.3414 1.53938C32.29 1.53938 33.1286 1.59805 33.8351 1.71785C33.906 1.73741 34.5197 1.93055 35.1553 2.67377C35.8154 3.44388 36.5978 4.93766 36.7249 7.72474C36.7322 7.8861 36.7371 8.04501 36.7371 8.2186L36.7493 8.75645V8.8078H37.3385L37.3459 8.80046C37.3776 8.80046 37.4803 8.80046 37.6417 8.81269C37.9546 8.83713 38.468 8.91537 38.9937 9.12562C39.5829 9.3701 40.0131 9.70993 40.2821 10.1573C40.6219 10.7147 40.6415 11.4262 40.4092 12.0349L40.4043 12.0374Z" fill="white"/>
</mask>
<g mask="url(#mask3_430_51335)">
<path d="M81.5747 -0.323395H0.21875V28.9654H81.5747V-0.323395Z" fill="url(#paint3_linear_430_51335)"/>
</g>
<defs>
<linearGradient id="paint0_linear_430_51335" x1="0.21875" y1="14.3208" x2="81.5747" y2="14.3208" gradientUnits="userSpaceOnUse">
<stop stop-color="#FFAF61"/>
<stop offset="0.21" stop-color="#FFA750"/>
<stop offset="0.29" stop-color="#FF9F48"/>
<stop offset="0.36" stop-color="#FF9331"/>
<stop offset="0.44" stop-color="#FF8517"/>
<stop offset="0.54" stop-color="#FF8400"/>
<stop offset="0.67" stop-color="#F47A00"/>
<stop offset="0.77" stop-color="#E57200"/>
<stop offset="0.94" stop-color="#D86600"/>
</linearGradient>
<linearGradient id="paint1_linear_430_51335" x1="0.21875" y1="14.3209" x2="81.5747" y2="14.3209" gradientUnits="userSpaceOnUse">
<stop stop-color="#FFC799"/>
<stop offset="0.11" stop-color="#FFAF61"/>
<stop offset="0.21" stop-color="#FFA750"/>
<stop offset="0.29" stop-color="#FF9F48"/>
<stop offset="0.36" stop-color="#FF9331"/>
<stop offset="0.44" stop-color="#FF8517"/>
<stop offset="0.54" stop-color="#FF8400"/>
<stop offset="0.67" stop-color="#F47A00"/>
<stop offset="0.77" stop-color="#E57200"/>
<stop offset="0.94" stop-color="#D86600"/>
</linearGradient>
<linearGradient id="paint2_linear_430_51335" x1="0.21875" y1="14.3208" x2="81.5747" y2="14.3208" gradientUnits="userSpaceOnUse">
<stop stop-color="#FFC799"/>
<stop offset="0.11" stop-color="#FFAF61"/>
<stop offset="0.21" stop-color="#FFA750"/>
<stop offset="0.29" stop-color="#FF9F48"/>
<stop offset="0.36" stop-color="#FF9331"/>
<stop offset="0.44" stop-color="#FF8517"/>
<stop offset="0.54" stop-color="#FF8400"/>
<stop offset="0.67" stop-color="#F47A00"/>
<stop offset="0.77" stop-color="#E57200"/>
<stop offset="0.94" stop-color="#D86600"/>
</linearGradient>
<linearGradient id="paint3_linear_430_51335" x1="0.21875" y1="14.321" x2="81.5747" y2="14.321" gradientUnits="userSpaceOnUse">
<stop stop-color="#FFC799"/>
<stop offset="0.11" stop-color="#FFAF61"/>
<stop offset="0.21" stop-color="#FFA750"/>
<stop offset="0.29" stop-color="#FF9F48"/>
<stop offset="0.36" stop-color="#FF9331"/>
<stop offset="0.44" stop-color="#FF8517"/>
<stop offset="0.54" stop-color="#FF8400"/>
<stop offset="0.67" stop-color="#F47A00"/>
<stop offset="0.77" stop-color="#E57200"/>
<stop offset="0.94" stop-color="#D86600"/>
</linearGradient>
</defs>
</svg>
