<svg width="327" height="160" viewBox="0 0 327 160" fill="none" xmlns="http://www.w3.org/2000/svg">
<path d="M18.8126 136.955H15.9962C15.7126 134.745 13.7078 133.043 10.4514 133.043C7.19487 133.043 5.31725 134.403 5.31725 136.27C5.31725 138.432 7.24376 139.37 11.7031 140.309C16.8372 141.404 18.8908 143.38 18.8908 146.48C18.8908 150.235 15.2138 152.523 10.5785 152.523C5.70842 152.523 2.18789 149.864 1.9043 145.825H4.72072C5.00432 148.348 7.2731 150.147 10.7643 150.147C13.8936 150.147 16.1038 148.71 16.1038 146.627C16.1038 144.309 14.2066 143.37 9.66901 142.402C4.95542 141.414 2.55951 139.722 2.55951 136.251C2.55951 132.779 5.97246 130.677 10.5883 130.677C15.2041 130.677 18.5583 133.278 18.8224 136.926L18.8126 136.955Z" fill="white"/>
<path d="M23.0557 144.612C23.0557 140.133 26.185 136.798 30.5368 136.798C34.8885 136.798 37.9886 140.133 37.9886 144.612C37.9886 144.954 37.9886 145.345 37.9397 145.707H25.745C26.0286 148.259 27.8768 150.166 30.5368 150.166C32.5709 150.166 34.1551 149.228 34.7027 148.005H37.4409C36.6292 150.587 33.9497 152.435 30.5368 152.435C26.185 152.435 23.0557 149.1 23.0557 144.622V144.612ZM30.5368 139.067C27.8573 139.067 26.0286 140.945 25.745 143.526H35.3579C35.045 140.925 33.2261 139.067 30.5368 139.067Z" fill="white"/>
<path d="M49.9003 152.435C45.4703 152.435 42.2432 149.101 42.2432 144.622C42.2432 140.143 45.4508 136.808 49.8514 136.808C53.3719 136.808 56.1297 139.077 56.8631 142.177H54.1249C53.5284 140.407 51.9637 139.184 49.8514 139.184C46.8785 139.184 44.8738 141.531 44.8738 144.631C44.8738 147.732 46.8785 150.079 49.8514 150.079C51.9637 150.079 53.5773 148.827 54.1738 147.027H56.912C56.1003 150.255 53.3719 152.445 49.9003 152.445V152.435Z" fill="white"/>
<path d="M72.5203 152.064V149.795C71.8944 150.89 70.2026 152.426 67.4644 152.426C63.9439 152.426 61.4697 149.903 61.4697 145.883V137.16H64.1492V145.424C64.1492 148.446 65.6063 150.088 68.0316 150.088C70.6329 150.088 72.5105 147.644 72.5105 144.876V137.16H75.19V152.064H72.5105H72.5203Z" fill="white"/>
<path d="M83.7264 137.16V139.449C84.3816 138.324 86.1712 136.789 89.0952 136.789C90.0046 136.789 90.611 136.867 91.1293 137.053V139.605C90.5523 139.341 89.8286 139.184 88.9191 139.184C85.868 139.184 83.7362 141.629 83.7362 144.338V152.054H81.0566V137.15H83.7362L83.7264 137.16Z" fill="white"/>
<path d="M98.9718 132.055C98.9718 133.072 98.2188 133.825 97.1724 133.825C96.126 133.825 95.4023 133.072 95.4023 132.055C95.4023 131.038 96.1553 130.285 97.1724 130.285C98.1894 130.285 98.9718 131.038 98.9718 132.055ZM95.8424 152.093V137.16H98.5219V152.093H95.8424Z" fill="white"/>
<path d="M113.721 139.537H110.416V152.064H107.736V139.537H104.431V137.17H107.736V132.632H110.416V137.17H113.721V139.537Z" fill="white"/>
<path d="M133.425 137.16L124.125 158.391H121.416L124.359 151.751L117.974 137.16H120.917L125.709 148.886L130.638 137.16H133.425Z" fill="white"/>
<path d="M148.427 152.064H145.688V131.195H148.427V152.064Z" fill="white"/>
<path d="M173.373 149.717L176.287 153.413L174.155 155.027L171.162 151.252C169.598 152.083 167.779 152.533 165.794 152.533C159.467 152.533 154.772 147.917 154.772 141.619C154.772 135.322 159.437 130.706 165.764 130.706C172.091 130.706 176.786 135.322 176.786 141.619C176.786 144.925 175.504 147.771 173.373 149.726V149.717ZM169.549 149.198L165.745 144.407L167.877 142.764L171.73 147.634C173.187 146.147 174.047 144.035 174.047 141.619C174.047 136.691 170.527 133.2 165.764 133.2C161.002 133.2 157.501 136.691 157.501 141.619C157.501 146.548 161.021 150.039 165.784 150.039C167.163 150.039 168.415 149.756 169.539 149.208L169.549 149.198Z" fill="white"/>
<path d="M192.207 131.195V143.077C192.207 147.272 194.632 150.059 198.593 150.059C202.553 150.059 204.949 147.272 204.949 143.077V131.195H207.687V143.077C207.687 148.807 204.118 152.563 198.593 152.563C193.067 152.563 189.479 148.807 189.479 143.077V131.195H192.217H192.207Z" fill="white"/>
<path d="M222.191 131.195C227.609 131.195 230.787 134.09 230.787 138.441C230.787 142.793 227.609 145.688 222.191 145.688H217.526V152.074H214.788V131.205H222.191V131.195ZM228.049 138.441C228.049 135.341 225.76 133.669 221.976 133.669H217.516V143.204H221.976C225.751 143.204 228.049 141.532 228.049 138.432V138.441Z" fill="white"/>
<path d="M243.06 150.294L250.463 142.871C253.123 140.192 254.159 138.49 254.159 137.014C254.159 134.569 252.487 133.131 249.886 133.131C247.069 133.131 245.563 135.263 245.563 137.591H242.825C242.825 133.816 245.563 130.716 249.915 130.716C254.267 130.716 256.868 133.239 256.868 136.994C256.868 139.233 255.587 141.14 252.468 144.338L247.001 149.707H257.582V152.074H243.07V150.304L243.06 150.294Z" fill="white"/>
<path d="M262.998 141.619C262.998 134.324 266.303 130.706 270.714 130.706C275.124 130.706 278.4 134.324 278.4 141.619C278.4 148.915 275.095 152.533 270.714 152.533C266.333 152.533 262.998 148.915 262.998 141.619ZM275.76 141.619C275.76 135.967 273.521 133.121 270.704 133.121C267.888 133.121 265.619 135.957 265.619 141.619C265.619 147.282 267.858 150.118 270.704 150.118C273.55 150.118 275.76 147.301 275.76 141.619Z" fill="white"/>
<path d="M283.791 150.294L291.194 142.871C293.854 140.192 294.891 138.49 294.891 137.014C294.891 134.569 293.219 133.131 290.617 133.131C287.801 133.131 286.295 135.263 286.295 137.591H283.557C283.557 133.816 286.295 130.716 290.647 130.716C294.998 130.716 297.6 133.239 297.6 136.994C297.6 139.233 296.319 141.14 293.199 144.338L287.732 149.707H298.314V152.074H283.801V150.304L283.791 150.294Z" fill="white"/>
<path d="M304.502 146.177H307.211C307.289 148.416 308.932 150.167 311.875 150.167C314.819 150.167 316.57 148.133 316.57 145.394C316.57 142.656 314.692 140.73 311.934 140.73C309.646 140.73 308.316 141.903 307.612 143.204H304.932L305.529 131.195H318.193V133.562H308.032L307.67 140.387C308.453 139.419 309.988 138.383 312.384 138.383C316.345 138.383 319.259 141.219 319.259 145.394C319.259 149.57 316.266 152.533 311.885 152.533C307.504 152.533 304.668 149.795 304.512 146.177H304.502Z" fill="white"/>
<mask id="mask0_384_7787" style="mask-type:luminance" maskUnits="userSpaceOnUse" x="1" y="33" width="75" height="79">
<path d="M51.7684 63.4139H25.4721C22.1764 63.3846 19.5165 60.7051 19.5165 57.3997V56.9107C19.5165 53.5858 22.2058 50.8965 25.5307 50.8965H71.6692V33.2743H25.2373C12.0452 33.2841 1.35645 43.9728 1.35645 57.165C1.35645 70.3572 11.5855 80.5667 24.367 81.0263V81.0459H51.5239C54.8195 81.0752 57.4795 83.7547 57.4795 87.0601V87.5491C57.4795 90.874 54.7902 93.5633 51.4653 93.5633H3.59589V111.185H51.7586C64.9508 111.185 75.6395 100.497 75.6395 87.3046C75.6395 74.1124 64.9508 63.4237 51.7586 63.4237L51.7684 63.4139Z" fill="white"/>
</mask>
<g mask="url(#mask0_384_7787)">
<path d="M326.301 -1.29442H0.876953V115.861H326.301V-1.29442Z" fill="url(#paint0_linear_384_7787)"/>
</g>
<mask id="mask1_384_7787" style="mask-type:luminance" maskUnits="userSpaceOnUse" x="172" y="33" width="71" height="79">
<path d="M242.758 66.5532L242.68 33.1278H242.455C238.074 33.2452 233.605 33.2158 229.283 33.1865C227.777 33.1767 226.271 33.1669 224.765 33.1571H224.549L224.618 68.0397C224.618 68.0397 224.843 77.4962 224.109 81.2025C223.699 83.3051 222.721 86.3171 220.403 88.7423C217.645 91.6174 213.694 93.0648 208.326 93.1528C208.101 93.1528 207.886 93.1528 207.661 93.1528C207.446 93.1528 207.221 93.1528 206.996 93.1528C201.627 93.0648 197.676 91.6272 194.918 88.7423C192.601 86.3171 191.623 83.3051 191.212 81.2025C190.479 77.4962 190.703 68.0397 190.703 68.0397L190.772 33.1571H190.557C189.051 33.1571 187.545 33.1767 186.039 33.1865C181.716 33.2158 177.247 33.2452 172.866 33.1376H172.641L172.563 66.563C172.426 74.2202 172.299 82.1316 174.294 89.1922C175.585 93.7395 178.157 98.1011 181.56 101.475C187.975 107.851 196.757 111.107 207.661 111.176C218.564 111.107 227.336 107.841 233.761 101.475C237.155 98.1011 239.737 93.7395 241.027 89.1922C243.022 82.1218 242.885 74.2104 242.758 66.563V66.5532Z" fill="white"/>
</mask>
<g mask="url(#mask1_384_7787)">
<path d="M326.301 -1.29391H0.876953V115.861H326.301V-1.29391Z" fill="url(#paint1_linear_384_7787)"/>
</g>
<path d="M103.041 27.2024L101.173 27.3002C112.507 40.5022 126.374 43.2501 126.374 43.2501C128.76 42.9959 130.266 40.5315 130.266 40.5315C109.378 35.4267 103.021 27.2024 103.021 27.2024H103.05H103.041Z" fill="#FFA750"/>
<path d="M144.388 40.2479C144.847 40.688 145.825 40.7369 145.825 40.7369C148.671 39.7394 148.906 36.3558 148.906 36.3558C148.241 36.2775 147.419 36.2775 147.419 36.2775C146.852 38.9668 144.397 40.2479 144.397 40.2479H144.388Z" fill="#FFA750"/>
<path d="M133.876 8.35794C128.419 7.07686 113.065 8.56331 113.065 8.56331C135.215 11.2037 137.259 20.6113 137.259 20.6113C139.127 12.7879 133.876 8.35794 133.876 8.35794Z" fill="#FFA750"/>
<mask id="mask2_384_7787" style="mask-type:luminance" maskUnits="userSpaceOnUse" x="254" y="33" width="73" height="77">
<path d="M306.38 33.9898C306.047 33.9116 305.715 33.8236 305.382 33.7649C303.319 33.3639 300.874 33.2173 298.361 33.1684C298.038 33.1684 297.725 33.1488 297.402 33.1488H254.677V109.955L272.807 109.935V86.475H297.412C297.833 86.475 298.243 86.4554 298.654 86.4457C301.04 86.3968 303.348 86.2403 305.314 85.8687C316.53 83.4434 325.126 73.9673 326.212 62.3007C326.251 61.2446 326.29 59.8657 326.31 59.0247C325.967 46.9669 317.616 36.9138 306.389 33.9898H306.38ZM306.8 58.4477V61.3032C306.8 65.3421 303.524 68.6181 299.485 68.6181H272.798V50.9764H299.475C303.514 50.9764 306.79 54.2524 306.79 58.2912V58.4477H306.8Z" fill="white"/>
</mask>
<g mask="url(#mask2_384_7787)">
<path d="M326.301 -1.29442H0.876953V115.861H326.301V-1.29442Z" fill="url(#paint2_linear_384_7787)"/>
</g>
<mask id="mask3_384_7787" style="mask-type:luminance" maskUnits="userSpaceOnUse" x="80" y="1" width="88" height="111">
<path d="M167.093 43.7684C165.763 34.4586 157.529 31.1826 151.583 30.5371C150.429 5.53162 136.865 2.30447 136.278 2.17734H136.18C133.08 1.61014 129.413 1.35588 125.335 1.35588C116.974 1.35588 109.571 2.46093 109.063 2.53917C100.271 3.77135 98.5011 15.4086 98.1393 20.5134C95.4206 20.5623 91.1667 20.6894 90.5212 20.6894H90.3648C87.3136 20.973 85.2893 22.0488 84.0083 23.0267C83.1868 23.6721 82.6783 24.2589 82.4729 24.562C78.7079 29.0213 80.4486 34.6933 80.5268 34.9476V35.0258C81.3679 37.3044 82.7272 39.5927 84.6243 41.8713C85.7392 43.1035 86.9518 44.3259 88.2329 45.5189C83.6562 52.0515 80.9571 59.9922 80.9571 68.5686C80.9571 90.7675 98.9509 108.761 121.15 108.761C125.912 108.761 130.45 107.891 134.694 106.375L138.84 111.382H160.658L149.099 97.4271C156.639 90.122 161.352 79.9027 161.352 68.5686C161.352 65.0285 160.893 61.596 160.032 58.32C160.736 57.6452 161.391 56.9313 161.978 56.1783C167.435 50.0761 167.102 44.2574 167.054 43.8662L167.102 43.8956V43.7684H167.093ZM90.2767 47.3281C90.2767 47.3281 90.2963 47.3476 90.3061 47.3476C90.3061 47.3476 90.2865 47.3281 90.2767 47.3281ZM137.55 83.4819L136.004 81.6141H114.187L121.737 90.7186C121.541 90.7186 121.355 90.7479 121.169 90.7479C108.916 90.7479 98.9803 80.8122 98.9803 68.5588C98.9803 63.8452 100.457 59.4739 102.96 55.8849C102.96 55.8849 102.96 55.8849 102.951 55.8849C103.156 55.9925 103.361 56.1001 103.557 56.2076C103.586 56.2076 103.606 56.237 103.635 56.2565C110.94 60.2562 117.708 63.0042 120.397 64.0212C121.091 64.3048 121.551 64.4613 121.6 64.4809H121.649C126.362 66.0749 131.34 66.867 136.435 66.867C138.694 66.867 140.61 66.7105 142.156 66.5052C142.517 66.4465 142.87 66.3585 143.231 66.29C143.31 67.0333 143.349 67.796 143.349 68.5588C143.349 74.309 141.139 79.5311 137.55 83.4722V83.4819ZM161.616 48.1495L161.587 48.1006C161.352 48.6874 161.049 49.3524 160.668 50.0467C160.433 50.4574 160.13 50.9171 159.797 51.3571C159.289 52.071 158.722 52.7947 157.978 53.5672C157.313 54.2616 156.521 55.0048 155.592 55.7187C154.849 56.3054 153.998 56.8726 153.079 57.4594C151.749 58.2808 150.204 59.1023 148.444 59.8944C147.622 60.2562 146.723 60.6083 145.803 60.9506C145.52 61.0484 145.217 61.1853 144.904 61.2831C144.698 61.332 144.082 61.4884 143.134 61.6449C141.647 61.8992 139.31 62.1828 136.474 62.1828C133.804 62.1828 131.164 61.9285 128.602 61.4395C126.753 61.107 124.964 60.667 123.194 60.0802C123.164 60.0802 123.096 60.0509 122.988 60.002C121.6 59.4935 113.962 56.5695 105.816 52.1004C104.173 51.2007 102.638 50.301 101.181 49.4111C100.388 48.9221 99.6159 48.4331 98.8727 47.9246C98.0806 47.4161 97.3374 46.8782 96.5941 46.3599C95.2837 45.4407 94.0809 44.5117 93.0052 43.5924C92.2619 42.9763 91.5676 42.3602 90.932 41.7441C90.2181 41.0792 89.5726 40.3848 88.9565 39.7198C87.0887 37.6173 85.749 35.5637 85.0351 33.5687C84.9373 33.2069 84.1354 29.9504 86.1401 27.6425L86.2184 27.5936L86.3162 27.4371C86.4139 27.31 86.9322 26.7232 88.008 26.2049C88.6729 25.8724 89.5726 25.5888 90.7462 25.491C94.4134 25.3933 99.9484 25.2563 100.437 25.2563H102.824V22.8702C102.824 22.7137 102.902 8.20135 109.747 7.2821H109.777C109.777 7.2821 117.238 6.15749 125.365 6.15749C129.159 6.15749 132.513 6.39219 135.339 6.87137C135.623 6.94961 138.078 7.72217 140.62 10.6951C143.261 13.7755 146.39 19.7506 146.899 30.899C146.928 31.5444 146.947 32.18 146.947 32.8744L146.996 35.0258V35.2312H149.353L149.382 35.2018C149.51 35.2018 149.92 35.2018 150.566 35.2507C151.818 35.3485 153.871 35.6615 155.974 36.5025C158.33 37.4804 160.052 38.8397 161.127 40.6293C162.487 42.859 162.565 45.7047 161.636 48.1398L161.616 48.1495Z" fill="white"/>
</mask>
<g mask="url(#mask3_384_7787)">
<path d="M326.3 -1.29391H0.875977V115.861H326.3V-1.29391Z" fill="url(#paint3_linear_384_7787)"/>
</g>
<defs>
<linearGradient id="paint0_linear_384_7787" x1="0.876953" y1="57.2832" x2="326.301" y2="57.2832" gradientUnits="userSpaceOnUse">
<stop stop-color="#FFAF61"/>
<stop offset="0.21" stop-color="#FFA750"/>
<stop offset="0.29" stop-color="#FF9F48"/>
<stop offset="0.36" stop-color="#FF9331"/>
<stop offset="0.44" stop-color="#FF8517"/>
<stop offset="0.54" stop-color="#FF8400"/>
<stop offset="0.67" stop-color="#F47A00"/>
<stop offset="0.77" stop-color="#E57200"/>
<stop offset="0.94" stop-color="#D86600"/>
</linearGradient>
<linearGradient id="paint1_linear_384_7787" x1="0.876953" y1="57.2837" x2="326.301" y2="57.2837" gradientUnits="userSpaceOnUse">
<stop stop-color="#FFC799"/>
<stop offset="0.11" stop-color="#FFAF61"/>
<stop offset="0.21" stop-color="#FFA750"/>
<stop offset="0.29" stop-color="#FF9F48"/>
<stop offset="0.36" stop-color="#FF9331"/>
<stop offset="0.44" stop-color="#FF8517"/>
<stop offset="0.54" stop-color="#FF8400"/>
<stop offset="0.67" stop-color="#F47A00"/>
<stop offset="0.77" stop-color="#E57200"/>
<stop offset="0.94" stop-color="#D86600"/>
</linearGradient>
<linearGradient id="paint2_linear_384_7787" x1="0.876953" y1="57.2832" x2="326.301" y2="57.2832" gradientUnits="userSpaceOnUse">
<stop stop-color="#FFC799"/>
<stop offset="0.11" stop-color="#FFAF61"/>
<stop offset="0.21" stop-color="#FFA750"/>
<stop offset="0.29" stop-color="#FF9F48"/>
<stop offset="0.36" stop-color="#FF9331"/>
<stop offset="0.44" stop-color="#FF8517"/>
<stop offset="0.54" stop-color="#FF8400"/>
<stop offset="0.67" stop-color="#F47A00"/>
<stop offset="0.77" stop-color="#E57200"/>
<stop offset="0.94" stop-color="#D86600"/>
</linearGradient>
<linearGradient id="paint3_linear_384_7787" x1="0.875977" y1="57.2837" x2="326.3" y2="57.2837" gradientUnits="userSpaceOnUse">
<stop stop-color="#FFC799"/>
<stop offset="0.11" stop-color="#FFAF61"/>
<stop offset="0.21" stop-color="#FFA750"/>
<stop offset="0.29" stop-color="#FF9F48"/>
<stop offset="0.36" stop-color="#FF9331"/>
<stop offset="0.44" stop-color="#FF8517"/>
<stop offset="0.54" stop-color="#FF8400"/>
<stop offset="0.67" stop-color="#F47A00"/>
<stop offset="0.77" stop-color="#E57200"/>
<stop offset="0.94" stop-color="#D86600"/>
</linearGradient>
</defs>
</svg>
