<svg width="82" height="40" viewBox="0 0 82 40" fill="none" xmlns="http://www.w3.org/2000/svg">
<path d="M4.70266 34.2387H3.99856C3.92766 33.6862 3.42647 33.2608 2.61235 33.2608C1.79823 33.2608 1.32882 33.6006 1.32882 34.0676C1.32882 34.6079 1.81045 34.8426 2.92529 35.0773C4.20881 35.3511 4.72222 35.845 4.72222 36.62C4.72222 37.5588 3.80297 38.1309 2.64413 38.1309C1.42662 38.1309 0.546485 37.4659 0.475586 36.4562H1.17969C1.25059 37.0869 1.81779 37.5368 2.69058 37.5368C3.47292 37.5368 4.02545 37.1774 4.02545 36.6566C4.02545 36.0772 3.55116 35.8425 2.41676 35.6005C1.23837 35.3536 0.639388 34.9306 0.639388 34.0627C0.639388 33.1948 1.49263 32.6692 2.64658 32.6692C3.80053 32.6692 4.6391 33.3195 4.70511 34.2314L4.70266 34.2387Z" fill="white"/>
<path d="M5.76367 36.1529C5.76367 35.0332 6.54601 34.1995 7.63395 34.1995C8.72189 34.1995 9.4969 35.0332 9.4969 36.1529C9.4969 36.2385 9.4969 36.3363 9.48467 36.4268H6.43599C6.50689 37.0649 6.96896 37.5416 7.63395 37.5416C8.14247 37.5416 8.53853 37.3069 8.67544 37.0013H9.35999C9.15707 37.6467 8.48719 38.1088 7.63395 38.1088C6.54601 38.1088 5.76367 37.2751 5.76367 36.1554V36.1529ZM7.63395 34.7667C6.96407 34.7667 6.50689 35.2361 6.43599 35.8816H8.83924C8.76101 35.2313 8.30627 34.7667 7.63395 34.7667Z" fill="white"/>
<path d="M12.4748 38.1088C11.3673 38.1088 10.5605 37.2752 10.5605 36.1554C10.5605 35.0357 11.3624 34.202 12.4626 34.202C13.3427 34.202 14.0322 34.7692 14.2155 35.5442H13.531C13.3819 35.1017 12.9907 34.7961 12.4626 34.7961C11.7194 34.7961 11.2182 35.3829 11.2182 36.1579C11.2182 36.9329 11.7194 37.5196 12.4626 37.5196C12.9907 37.5196 13.3941 37.2067 13.5432 36.7569H14.2278C14.0248 37.5636 13.3427 38.1113 12.4748 38.1113V38.1088Z" fill="white"/>
<path d="M18.1298 38.016V37.4488C17.9734 37.7226 17.5504 38.1064 16.8659 38.1064C15.9857 38.1064 15.3672 37.4757 15.3672 36.4709V34.2901H16.0371V36.3559C16.0371 37.1114 16.4013 37.5221 17.0077 37.5221C17.658 37.5221 18.1274 36.9109 18.1274 36.219V34.2901H18.7973V38.016H18.1274H18.1298Z" fill="white"/>
<path d="M20.9311 34.2901V34.8622C21.0949 34.581 21.5423 34.1972 22.2733 34.1972C22.5007 34.1972 22.6523 34.2167 22.7818 34.2632V34.9013C22.6376 34.8353 22.4567 34.7961 22.2293 34.7961C21.4665 34.7961 20.9336 35.4073 20.9336 36.0846V38.0135H20.2637V34.2876H20.9336L20.9311 34.2901Z" fill="white"/>
<path d="M24.7429 33.0138C24.7429 33.2681 24.5547 33.4564 24.2931 33.4564C24.0315 33.4564 23.8506 33.2681 23.8506 33.0138C23.8506 32.7596 24.0388 32.5713 24.2931 32.5713C24.5474 32.5713 24.7429 32.7596 24.7429 33.0138ZM23.9606 38.0233V34.29H24.6305V38.0233H23.9606Z" fill="white"/>
<path d="M28.43 34.8841H27.6036V38.0159H26.9338V34.8841H26.1074V34.2925H26.9338V33.1581H27.6036V34.2925H28.43V34.8841Z" fill="white"/>
<path d="M33.356 34.2901L31.0309 39.5978H30.3537L31.0896 37.9377L29.4932 34.2901H30.2291L31.427 37.2214L32.6592 34.2901H33.356Z" fill="white"/>
<path d="M37.1064 38.016H36.4219V32.7988H37.1064V38.016Z" fill="white"/>
<path d="M43.3434 37.4292L44.0719 38.3533L43.539 38.7567L42.7909 37.813C42.3997 38.0208 41.945 38.1333 41.4487 38.1333C39.8669 38.1333 38.6934 36.9793 38.6934 35.4049C38.6934 33.8304 39.8595 32.6765 41.4413 32.6765C43.0231 32.6765 44.1966 33.8304 44.1966 35.4049C44.1966 36.2312 43.8764 36.9426 43.3434 37.4316V37.4292ZM42.3875 37.2996L41.4364 36.1016L41.9694 35.6909L42.9327 36.9084C43.2969 36.5368 43.5121 36.0087 43.5121 35.4049C43.5121 34.1727 42.6319 33.2999 41.4413 33.2999C40.2507 33.2999 39.3755 34.1727 39.3755 35.4049C39.3755 36.637 40.2556 37.5098 41.4462 37.5098C41.7909 37.5098 42.1039 37.4389 42.385 37.302L42.3875 37.2996Z" fill="white"/>
<path d="M48.0512 32.7988V35.7692C48.0512 36.818 48.6576 37.5148 49.6477 37.5148C50.6378 37.5148 51.2368 36.818 51.2368 35.7692V32.7988H51.9214V35.7692C51.9214 37.2019 51.029 38.1407 49.6477 38.1407C48.2664 38.1407 47.3691 37.2019 47.3691 35.7692V32.7988H48.0537H48.0512Z" fill="white"/>
<path d="M55.548 32.7988C56.9024 32.7988 57.697 33.5224 57.697 34.6104C57.697 35.6983 56.9024 36.422 55.548 36.422H54.3818V38.0184H53.6973V32.8012H55.548V32.7988ZM57.0124 34.6104C57.0124 33.8354 56.4403 33.4173 55.4942 33.4173H54.3794V35.801H55.4942C56.4379 35.801 57.0124 35.3829 57.0124 34.6079V34.6104Z" fill="white"/>
<path d="M60.7647 37.5734L62.6155 35.7178C63.2804 35.048 63.5396 34.6226 63.5396 34.2534C63.5396 33.6422 63.1215 33.2828 62.4712 33.2828C61.7671 33.2828 61.3906 33.8158 61.3906 34.3976H60.7061C60.7061 33.4539 61.3906 32.6789 62.4785 32.6789C63.5665 32.6789 64.2168 33.3097 64.2168 34.2485C64.2168 34.8084 63.8965 35.2851 63.1166 36.0846L61.75 37.4268H64.3953V38.0184H60.7672V37.5759L60.7647 37.5734Z" fill="white"/>
<path d="M65.749 35.4049C65.749 33.581 66.5754 32.6765 67.678 32.6765C68.7806 32.6765 69.5996 33.581 69.5996 35.4049C69.5996 37.2287 68.7732 38.1333 67.678 38.1333C66.5827 38.1333 65.749 37.2287 65.749 35.4049ZM68.9395 35.4049C68.9395 33.9918 68.3796 33.2803 67.6755 33.2803C66.9714 33.2803 66.4042 33.9893 66.4042 35.4049C66.4042 36.8204 66.9641 37.5294 67.6755 37.5294C68.387 37.5294 68.9395 36.8253 68.9395 35.4049Z" fill="white"/>
<path d="M70.9473 37.5734L72.7981 35.7178C73.4631 35.048 73.7222 34.6226 73.7222 34.2534C73.7222 33.6422 73.3041 33.2828 72.6538 33.2828C71.9497 33.2828 71.5732 33.8158 71.5732 34.3976H70.8887C70.8887 33.4539 71.5732 32.6789 72.6612 32.6789C73.7491 32.6789 74.3994 33.3097 74.3994 34.2485C74.3994 34.8084 74.0792 35.2851 73.2993 36.0846L71.9326 37.4268H74.5779V38.0184H70.9498V37.5759L70.9473 37.5734Z" fill="white"/>
<path d="M76.125 36.5442H76.8022C76.8218 37.1041 77.2325 37.5417 77.9684 37.5417C78.7043 37.5417 79.1419 37.0332 79.1419 36.3486C79.1419 35.6641 78.6725 35.1824 77.983 35.1824C77.411 35.1824 77.0785 35.4758 76.9024 35.801H76.2326L76.3817 32.7988H79.5477V33.3904H77.0076L76.9171 35.0969C77.1127 34.8548 77.4965 34.5957 78.0955 34.5957C79.0857 34.5957 79.8142 35.3047 79.8142 36.3486C79.8142 37.3926 79.0661 38.1333 77.9708 38.1333C76.8756 38.1333 76.1666 37.4488 76.1274 36.5442H76.125Z" fill="white"/>
<mask id="mask0_384_7843" style="mask-type:luminance" maskUnits="userSpaceOnUse" x="0" y="8" width="19" height="20">
<path d="M12.9419 15.8535H6.36777C5.54387 15.8461 4.87888 15.1763 4.87888 14.3499V14.2277C4.87888 13.3964 5.5512 12.7241 6.38244 12.7241H17.9171V8.31857H6.30909C3.01104 8.32102 0.338867 10.9932 0.338867 14.2912C0.338867 17.5893 2.89614 20.1417 6.09151 20.2566V20.2615H12.8807C13.7046 20.2688 14.3696 20.9387 14.3696 21.765V21.8873C14.3696 22.7185 13.6973 23.3908 12.8661 23.3908H0.898729V27.7964H12.9394C16.2375 27.7964 18.9096 25.1242 18.9096 21.8261C18.9096 18.5281 16.2375 15.8559 12.9394 15.8559L12.9419 15.8535Z" fill="white"/>
</mask>
<g mask="url(#mask0_384_7843)">
<path d="M81.5747 -0.323694H0.21875V28.9651H81.5747V-0.323694Z" fill="white"/>
</g>
<mask id="mask1_384_7843" style="mask-type:luminance" maskUnits="userSpaceOnUse" x="43" y="8" width="18" height="20">
<path d="M60.6898 16.6383L60.6703 8.28193H60.614C59.5188 8.31127 58.4015 8.30394 57.3209 8.2966C56.9444 8.29416 56.5679 8.29171 56.1914 8.28927H56.1376L56.1547 17.0099C56.1547 17.0099 56.2109 19.374 56.0276 20.3006C55.9249 20.8263 55.6804 21.5793 55.101 22.1856C54.4116 22.9043 53.4239 23.2662 52.0817 23.2882C52.0254 23.2882 51.9716 23.2882 51.9154 23.2882C51.8616 23.2882 51.8054 23.2882 51.7492 23.2882C50.407 23.2662 49.4193 22.9068 48.7298 22.1856C48.1504 21.5793 47.9059 20.8263 47.8032 20.3006C47.6199 19.374 47.6761 17.0099 47.6761 17.0099L47.6932 8.28927H47.6394C47.2629 8.28927 46.8864 8.29416 46.5099 8.2966C45.4293 8.30394 44.312 8.31127 43.2168 8.28438H43.1605L43.141 16.6407C43.1068 18.555 43.075 20.5329 43.5737 22.298C43.8964 23.4349 44.5394 24.5252 45.3902 25.3687C46.994 26.9627 49.1894 27.7768 51.9154 27.794C54.6414 27.7768 56.8344 26.9603 58.4406 25.3687C59.289 24.5252 59.9344 23.4349 60.2571 22.298C60.7558 20.5304 60.7216 18.5526 60.6898 16.6407V16.6383Z" fill="white"/>
</mask>
<g mask="url(#mask1_384_7843)">
<path d="M81.5757 -0.323402H0.219727V28.9654H81.5757V-0.323402Z" fill="white"/>
</g>
<path d="M25.7599 6.80059L25.293 6.82504C28.1265 10.1255 31.5932 10.8125 31.5932 10.8125C32.1898 10.749 32.5663 10.1329 32.5663 10.1329C27.3442 8.85668 25.755 6.80059 25.755 6.80059H25.7624H25.7599Z" fill="white"/>
<path d="M36.0967 10.062C36.2116 10.172 36.4561 10.1842 36.4561 10.1842C37.1675 9.93484 37.2262 9.08894 37.2262 9.08894C37.0599 9.06938 36.8546 9.06938 36.8546 9.06938C36.7128 9.7417 36.0991 10.062 36.0991 10.062H36.0967Z" fill="white"/>
<path d="M33.4692 2.08948C32.105 1.76921 28.2666 2.14083 28.2666 2.14083C33.8041 2.80092 34.3151 5.15283 34.3151 5.15283C34.782 3.19698 33.4692 2.08948 33.4692 2.08948Z" fill="white"/>
<mask id="mask2_384_7843" style="mask-type:luminance" maskUnits="userSpaceOnUse" x="63" y="8" width="19" height="20">
<path d="M76.5947 8.49745C76.5115 8.4779 76.4284 8.45589 76.3453 8.44122C75.8294 8.34099 75.2182 8.30431 74.5899 8.29209C74.5092 8.29209 74.431 8.2872 74.3503 8.2872H63.6689V27.4887L68.2016 27.4838V21.6187H74.3528C74.4579 21.6187 74.5606 21.6139 74.6633 21.6114C75.2598 21.5992 75.8368 21.5601 76.3282 21.4672C79.1324 20.8609 81.2814 18.4918 81.5527 15.5752C81.5625 15.3111 81.5723 14.9664 81.5772 14.7562C81.4916 11.7417 79.4037 9.22845 76.5971 8.49745H76.5947ZM76.6998 14.6119V15.3258C76.6998 16.3355 75.8808 17.1545 74.8711 17.1545H68.1992V12.7441H74.8686C75.8783 12.7441 76.6973 13.5631 76.6973 14.5728V14.6119H76.6998Z" fill="white"/>
</mask>
<g mask="url(#mask2_384_7843)">
<path d="M81.5747 -0.323681H0.21875V28.9651H81.5747V-0.323681Z" fill="white"/>
</g>
<mask id="mask3_384_7843" style="mask-type:luminance" maskUnits="userSpaceOnUse" x="20" y="0" width="22" height="28">
<path d="M41.7724 10.942C41.4399 8.61458 39.3814 7.79557 37.895 7.63422C37.6065 1.38284 34.2155 0.57605 34.0688 0.544267H34.0444C33.2694 0.402468 32.3526 0.338903 31.3331 0.338903C29.2428 0.338903 27.3921 0.615167 27.2649 0.634725C25.067 0.942771 24.6245 3.8521 24.5341 5.12829C23.8544 5.14051 22.7909 5.17229 22.6296 5.17229H22.5905C21.8277 5.24319 21.3216 5.51212 21.0013 5.7566C20.796 5.91796 20.6688 6.06465 20.6175 6.14044C19.6762 7.25527 20.1114 8.67326 20.131 8.73683V8.75638C20.3412 9.32602 20.6811 9.89811 21.1554 10.4678C21.4341 10.7758 21.7372 11.0814 22.0575 11.3797C20.9133 13.0128 20.2386 14.998 20.2386 17.1421C20.2386 22.6918 24.737 27.1903 30.2867 27.1903C31.4773 27.1903 32.6117 26.9727 33.6728 26.5937L34.7094 27.8455H40.1638L37.274 24.3567C39.1589 22.5304 40.3373 19.9756 40.3373 17.1421C40.3373 16.2571 40.2224 15.3989 40.0073 14.5799C40.1833 14.4112 40.3471 14.2328 40.4938 14.0445C41.858 12.5189 41.7749 11.0643 41.7627 10.9665L41.7749 10.9738V10.942H41.7724ZM22.5685 11.832C22.5685 11.832 22.5733 11.8368 22.5758 11.8368C22.5758 11.8368 22.5709 11.832 22.5685 11.832ZM34.3867 20.8704L34.0004 20.4035H28.546L30.4334 22.6796C30.3845 22.6796 30.3381 22.6869 30.2916 22.6869C27.2283 22.6869 24.7443 20.203 24.7443 17.1396C24.7443 15.9612 25.1135 14.8684 25.7394 13.9712C25.7394 13.9712 25.7394 13.9712 25.7369 13.9712C25.7883 13.9981 25.8396 14.0249 25.8885 14.0518C25.8958 14.0518 25.9007 14.0592 25.9081 14.0641C27.7343 15.064 29.4261 15.751 30.0985 16.0052C30.272 16.0761 30.387 16.1153 30.3992 16.1202H30.4114C31.5898 16.5187 32.8342 16.7167 34.108 16.7167C34.6727 16.7167 35.1519 16.6776 35.5382 16.6262C35.6286 16.6116 35.7166 16.5896 35.8071 16.5724C35.8267 16.7582 35.8364 16.9489 35.8364 17.1396C35.8364 18.5772 35.2839 19.8827 34.3867 20.868V20.8704ZM40.4033 12.0373L40.396 12.0251C40.3373 12.1718 40.2615 12.338 40.1662 12.5116C40.1075 12.6143 40.0317 12.7292 39.9486 12.8392C39.8215 13.0177 39.6797 13.1986 39.4939 13.3917C39.3276 13.5653 39.1296 13.7511 38.8973 13.9296C38.7115 14.0763 38.4988 14.2181 38.269 14.3648C37.9365 14.5701 37.5502 14.7755 37.1102 14.9735C36.9048 15.064 36.6799 15.152 36.4501 15.2376C36.3792 15.262 36.3034 15.2963 36.2252 15.3207C36.1738 15.3329 36.0198 15.372 35.7827 15.4112C35.411 15.4747 34.8267 15.5456 34.1177 15.5456C33.4503 15.5456 32.7902 15.4821 32.1497 15.3598C31.6876 15.2767 31.2402 15.1667 30.7977 15.02C30.7903 15.02 30.7732 15.0127 30.7463 15.0004C30.3992 14.8733 28.4898 14.1423 26.4533 13.025C26.0425 12.8001 25.6587 12.5752 25.2944 12.3527C25.0964 12.2305 24.9032 12.1082 24.7174 11.9811C24.5194 11.854 24.3336 11.7195 24.1478 11.5899C23.8202 11.3601 23.5195 11.1278 23.2506 10.898C23.0648 10.744 22.8912 10.59 22.7323 10.436C22.5538 10.2697 22.3924 10.0961 22.2384 9.92989C21.7714 9.40426 21.4365 8.89085 21.258 8.39211C21.2336 8.30165 21.0331 7.48753 21.5343 6.91055L21.5539 6.89833L21.5783 6.85921C21.6028 6.82743 21.7323 6.68074 22.0013 6.55117C22.1675 6.46804 22.3924 6.39714 22.6858 6.37269C23.6026 6.34825 24.9864 6.31402 25.1086 6.31402H25.7051V5.71748C25.7051 5.67837 25.7247 2.05027 27.4361 1.82046H27.4434C27.4434 1.82046 29.3088 1.5393 31.3404 1.5393C32.289 1.5393 33.1276 1.59798 33.8341 1.71778C33.905 1.73733 34.5187 1.93047 35.1543 2.6737C35.8144 3.44381 36.5968 4.93759 36.7239 7.72467C36.7312 7.88603 36.7361 8.04494 36.7361 8.21853L36.7484 8.75638V8.80772H37.3376L37.3449 8.80039C37.3767 8.80039 37.4794 8.80039 37.6407 8.81261C37.9536 8.83706 38.4671 8.9153 38.9927 9.12555C39.5819 9.37003 40.0122 9.70986 40.2811 10.1573C40.6209 10.7147 40.6405 11.4261 40.4082 12.0349L40.4033 12.0373Z" fill="white"/>
</mask>
<g mask="url(#mask3_384_7843)">
<path d="M81.5747 -0.3234H0.21875V28.9654H81.5747V-0.3234Z" fill="white"/>
</g>
</svg>
